<?xml version="1.0" encoding="UTF-8" standalone="no"?><!DOCTYPE svg PUBLIC "-//W3C//DTD SVG 1.1//EN" "http://www.w3.org/Graphics/SVG/1.1/DTD/svg11.dtd"><svg width="100%" height="100%" viewBox="0 0 577 480" version="1.1" xmlns="http://www.w3.org/2000/svg" xmlns:xlink="http://www.w3.org/1999/xlink" xml:space="preserve" xmlns:serif="http://www.serif.com/" style="fill-rule:evenodd;clip-rule:evenodd;stroke-linejoin:round;stroke-miterlimit:2;"><g><g><g><g><g><path d="M510.94,342.402l-45.03,-26.354l-7.263,12.409l45.03,26.354l7.263,-12.409Z" style="fill:#f4fffe;"/><path d="M535.916,313.846l-40.775,29.454l8.419,11.654l40.774,-29.454l-8.418,-11.654Z" style="fill:#fff;"/><ellipse cx="549.298" cy="310.866" rx="18.465" ry="18.154" style="fill:#10bfb3;"/></g><g><path d="M514.042,80.227l-45.03,26.354l-7.262,-12.409l45.03,-26.354l7.262,12.409Z" style="fill:#fff;"/><path d="M539.018,108.784l-40.775,-29.454l8.419,-11.655l40.775,29.454l-8.419,11.655Z" style="fill:#fff;"/><ellipse cx="552.4" cy="111.763" rx="18.465" ry="18.154" style="fill:#10bfb3;"/></g><g><rect x="519.555" y="202.038" width="27.767" height="13.707" style="fill:#fff;"/><ellipse cx="558.217" cy="207.921" rx="18.465" ry="18.154" style="fill:#10bfb3;"/></g></g><g><path d="M298.332,364.923c-0,34.013 27.573,61.585 61.585,61.585c0.387,0 0.775,0 1.162,0c34.013,0 61.585,-27.572 61.585,-61.585c0,-80.949 0,-222.329 0,-303.278c0,-34.013 -27.572,-61.585 -61.585,-61.586c-0.387,0 -0.775,0 -1.162,0c-34.012,0.001 -61.585,27.573 -61.585,61.586c-0,80.949 -0,222.329 -0,303.278Z" style="fill:#10bfb3;"/><path d="M408.752,356.829l9.06,0c16.334,0 31.998,-6.488 43.548,-18.038c11.549,-11.549 18.037,-27.214 18.037,-43.547c0,-47.329 0,-112.403 0,-159.732c0,-16.333 -6.488,-31.998 -18.037,-43.547c-11.55,-11.55 -27.214,-18.038 -43.548,-18.038c-5.509,-0 -9.06,-0 -9.06,-0l0,282.902Z" style="fill:#10bfb3;"/><ellipse cx="476.679" cy="209.911" rx="44.473" ry="55.286" style="fill:#10bfb3;"/><g><path d="M298.302,76.322c0,-0 26.844,7.525 32.302,7.72c2.453,0.088 11.61,0.387 18.893,-4.026c5.194,-3.148 10.794,-6.543 16.179,-13.916c3.241,-4.437 4.504,-24.644 6.237,-26.629c1.461,-1.675 8.245,0.18 8.245,0.18c-0,0 -2.214,23.343 -6.898,30.299c-5.185,7.7 -13.226,13.323 -15.014,14.522c-1.842,1.236 -8.626,7.163 -18.444,8.531c-10.393,1.449 -22.441,0.59 -24.404,0.007c-3.756,-1.116 -15.792,-3.793 -16.765,-5.653c-0.608,-1.164 -0.331,-11.035 -0.331,-11.035Z" style="fill:#bee6e8;"/><path d="M333.753,384.25c-1.149,3.368 -6.728,0.906 -8.322,-0.696c-5.321,-5.349 25.025,-48.69 23.139,-50.474c-11.288,-10.679 -18.809,-27.588 -19.761,-34.728c-0.952,-7.139 -1.677,-23.027 0.61,-29.224c2.217,-6.007 7.197,-15.537 11.212,-21.552c3.902,-5.845 1.78,-12.305 -0.476,-18.086c-2.421,-6.207 -25.96,-11.775 -27.129,-11.899c-2.721,-0.289 2.38,-7.139 2.38,-7.139c2.513,-8.118 33.218,12.516 37.521,23.89c1.726,4.562 25.654,-5.166 28.751,-4.072c3.574,1.261 2.044,10.356 0.665,9.207c-11.301,0.226 -20.97,1.531 -28.971,7.754c-8.72,6.782 -13.314,16.526 -14.661,20.327c-1.589,4.486 -2.699,26.825 -1.887,31.896c0.81,5.062 8.028,18.27 11.861,21.09c1.399,1.029 6.48,6.192 13.171,8.243c10.535,3.229 21.37,3.844 28.209,6.567c3.157,1.258 25.136,10.492 31.863,17.924c3.156,3.487 -1.096,4.897 -2.577,4.423c-4.223,-1.35 -15.618,-8.552 -19.373,-10.227c-9.92,-4.423 -16.013,-7.702 -26.807,-8.564c-6.256,-0.5 -13.405,-0.777 -14.366,-0.934c-7.312,-1.196 -22.677,39.308 -25.052,46.274Z" style="fill:#bee6e8;"/><path d="M477.413,267.884c0,-0 -12.601,-1.555 -23.281,0.039c-9.138,1.364 -20.289,12.086 -21.799,14.091c-3.412,4.529 -7.634,23.612 -7.478,26.263c0.156,2.651 2.928,1.389 5.303,0.624c1.736,-0.559 2.733,-16.276 11.368,-25.832c7.507,-8.309 23.882,-8.359 31.359,-6.924c6.341,1.217 4.528,-8.261 4.528,-8.261Z" style="fill:#bee6e8;"/><path d="M476.638,147.996c-3.818,-4.007 -30.754,6.48 -33.999,9.981c-2.294,2.474 -3.866,-9.575 -18.091,-22.957c-7.533,-7.086 -14.629,-11.791 -28.229,-14.691c-1.267,-0.271 -19.308,-2.213 -33.583,3.862c-13.702,5.832 -23.67,19.638 -24.434,21.777c-1.559,4.367 -5.77,19.963 -4.522,24.642c1.247,4.678 7.018,8.265 9.357,5.146c0.964,-1.284 -0.047,-10.923 2.552,-17.723c3.711,-9.711 11.411,-17.395 13.98,-18.771c2.081,-1.115 11.467,-10.276 23.377,-10.767c13.08,-0.539 28.741,7.707 30.21,9.176c2.807,2.807 11.447,13.756 14.723,17.655c3.275,3.899 3.781,13.019 2.027,17.779c-1.965,5.334 -3.405,13.198 -3.857,16.288c-0.476,3.247 -1.446,11.005 -1.446,12.876c0,1.872 3.432,1.56 6.395,1.092c2.963,-0.468 2.94,-9.36 4.523,-13.631c0.887,-2.396 2.735,-11.075 8.706,-17.935c7.244,-8.323 18.848,-14.85 20.302,-15.534c2.651,-1.247 5.302,-1.559 13.1,-1.247c7.798,0.312 0.204,-5.659 -1.091,-7.018Z" style="fill:#bee6e8;"/></g></g></g><g><g><g><path d="M65.743,342.343l45.03,-26.354l7.262,12.408l-45.03,26.354l-7.262,-12.408Z" style="fill:#f7fffe;"/><path d="M40.767,313.786l40.774,29.454l-8.419,11.655l-40.774,-29.454l8.419,-11.655Z" style="fill:#f7fffe;"/><ellipse cx="27.384" cy="310.806" rx="18.465" ry="18.154" style="fill:#10bfb3;"/></g><g><path d="M62.64,80.167l45.03,26.354l7.262,-12.408l-45.03,-26.354l-7.262,12.408Z" style="fill:#f7fffe;"/><path d="M37.664,108.724l40.775,-29.454l-8.419,-11.655l-40.775,29.454l8.419,11.655Z" style="fill:#f7fffe;"/><ellipse cx="24.282" cy="111.704" rx="18.465" ry="18.154" style="fill:#10bfb3;"/></g><g><rect x="29.361" y="201.979" width="27.767" height="13.707" style="fill:#f7fffe;"/><ellipse cx="18.465" cy="207.862" rx="18.465" ry="18.154" style="fill:#10bfb3;"/></g></g><g><path d="M278.35,364.863c0,34.013 -27.572,61.586 -61.585,61.586c-0.387,-0 -0.775,-0 -1.162,-0c-34.013,-0 -61.585,-27.573 -61.585,-61.586c-0,-80.949 -0,-222.328 -0,-303.278c-0,-34.012 27.572,-61.585 61.585,-61.585c0.387,-0 0.775,-0 1.162,-0c34.013,0 61.585,27.573 61.585,61.585c0,80.95 0,222.329 0,303.278Z" style="fill:#10bfb3;"/><path d="M167.93,356.77l-9.06,-0c-16.333,-0 -31.998,-6.489 -43.547,-18.038c-11.55,-11.55 -18.038,-27.214 -18.038,-43.548c-0,-47.329 -0,-112.402 -0,-159.731c-0,-16.334 6.488,-31.998 18.038,-43.548c11.549,-11.549 27.214,-18.038 43.547,-18.038c5.509,0 9.06,0 9.06,0l0,282.903Z" style="fill:#10bfb3;"/><ellipse cx="100.003" cy="209.852" rx="44.473" ry="55.286" style="fill:#10bfb3;"/><g><path d="M278.38,76.262c-0,0 -26.844,7.526 -32.302,7.721c-2.453,0.088 -11.609,0.387 -18.893,-4.027c-5.193,-3.147 -10.794,-6.543 -16.179,-13.916c-3.241,-4.436 -4.504,-24.643 -6.236,-26.629c-1.462,-1.674 -8.245,0.181 -8.245,0.181c-0,0 2.213,23.342 6.897,30.299c5.185,7.699 13.226,13.322 15.014,14.522c1.842,1.235 8.626,7.162 18.444,8.531c10.393,1.449 22.441,0.59 24.404,0.007c3.756,-1.117 15.793,-3.793 16.765,-5.654c0.608,-1.163 0.331,-11.035 0.331,-11.035Z" style="fill:#bee6e8;"/><path d="M242.93,384.191c1.148,3.367 6.727,0.905 8.321,-0.697c5.322,-5.349 -25.025,-48.689 -23.139,-50.474c11.289,-10.679 18.809,-27.588 19.761,-34.727c0.952,-7.139 1.677,-23.028 -0.61,-29.225c-2.217,-6.007 -7.197,-15.537 -11.212,-21.552c-3.902,-5.844 -1.78,-12.304 0.476,-18.086c2.421,-6.206 25.96,-11.774 27.129,-11.898c2.721,-0.29 -2.38,-7.14 -2.38,-7.14c-2.512,-8.117 -33.218,12.517 -37.521,23.89c-1.726,4.562 -25.654,-5.165 -28.751,-4.072c-3.574,1.262 -2.044,10.357 -0.665,9.207c11.302,0.226 20.971,1.532 28.972,7.755c8.719,6.781 13.313,16.525 14.66,20.326c1.589,4.487 2.7,26.826 1.887,31.897c-0.81,5.062 -8.027,18.269 -11.861,21.09c-1.399,1.029 -6.48,6.192 -13.171,8.243c-10.534,3.229 -21.37,3.843 -28.208,6.567c-3.158,1.257 -25.137,10.492 -31.864,17.924c-3.156,3.487 1.096,4.896 2.577,4.423c4.224,-1.351 15.618,-8.553 19.374,-10.227c9.919,-4.423 16.012,-7.702 26.806,-8.565c6.256,-0.5 13.405,-0.776 14.366,-0.934c7.313,-1.195 22.677,39.308 25.053,46.275Z" style="fill:#bee6e8;"/><path d="M99.269,267.824c-0,0 12.601,-1.554 23.282,0.04c9.137,1.364 20.288,12.086 21.799,14.091c3.412,4.529 7.633,23.611 7.477,26.262c-0.156,2.652 -2.927,1.389 -5.303,0.624c-1.736,-0.559 -2.733,-16.275 -11.367,-25.832c-7.508,-8.308 -23.883,-8.359 -31.359,-6.924c-6.341,1.217 -4.529,-8.261 -4.529,-8.261Z" style="fill:#bee6e8;"/><path d="M100.044,147.936c3.818,-4.006 30.754,6.481 33.999,9.981c2.294,2.475 3.866,-9.574 18.092,-22.957c7.532,-7.085 14.629,-11.79 28.228,-14.691c1.267,-0.27 19.308,-2.212 33.583,3.863c13.702,5.831 23.67,19.638 24.434,21.777c1.559,4.366 5.77,19.962 4.523,24.641c-1.248,4.679 -7.019,8.266 -9.358,5.147c-0.963,-1.285 0.047,-10.923 -2.552,-17.724c-3.711,-9.711 -11.411,-17.395 -13.98,-18.771c-2.081,-1.115 -11.467,-10.276 -23.377,-10.767c-13.079,-0.539 -28.741,7.707 -30.21,9.177c-2.807,2.807 -11.447,13.755 -14.722,17.654c-3.276,3.899 -3.782,13.019 -2.028,17.779c1.965,5.334 3.405,13.198 3.857,16.289c0.476,3.246 1.446,11.004 1.446,12.876c-0,1.871 -3.431,1.559 -6.395,1.091c-2.963,-0.467 -2.94,-9.359 -4.522,-13.63c-0.888,-2.396 -2.736,-11.076 -8.706,-17.936c-7.244,-8.322 -18.849,-14.849 -20.303,-15.533c-2.651,-1.248 -5.302,-1.56 -13.1,-1.248c-7.798,0.312 -0.204,-5.658 1.091,-7.018Z" style="fill:#bee6e8;"/></g></g></g></g><path d="M371.336,416.906l5.549,-5.568c-1.149,-4.197 -1.342,-4.05 -4.796,-12.333l-10.105,0.229c-0.826,-3.909 -1.261,-7.959 -1.261,-12.111c0,-4.335 0.474,-8.561 1.372,-12.625l9.561,-0.41c1.998,-3.865 1.757,-3.889 4.828,-12.321l-6.69,-5.887c4.472,-7.036 10.41,-13.052 17.384,-17.618l7.281,7.07c4.181,-1.202 4.032,-1.394 12.27,-4.953l-0.363,-10.221c4.096,-0.911 8.349,-1.391 12.713,-1.391c4.331,0 8.552,0.473 12.617,1.37l-0,0.619l-0.036,-0.015l0.119,9.092c3.876,1.752 3.96,1.792 11.914,5.447l5.821,-6.727l-0.04,-0.018l0.664,-0.814c7.521,4.741 13.885,11.151 18.571,18.708l-6.753,5.026c0.854,4.167 0.871,4.259 2.576,12.845l7.31,0.634c0.293,0.065 0.598,0.099 0.911,0.099l0.233,0l0.409,0.036l-0.008,-0.036l2.792,0c0.823,3.901 1.256,7.945 1.256,12.09c-0,4.58 -0.529,9.038 -1.529,13.316l-0.102,0l0.054,-0.132l-3.688,0.132l-0.067,0c-0.121,0 -0.241,0.005 -0.36,0.015l-4.972,0.178c-1.664,3.915 -1.702,4 -5.176,12.035l6.813,5.63c-4.582,7.232 -10.711,13.389 -17.922,18.006c-0.059,-0.02 -0.119,-0.039 -0.18,-0.056l-6.066,-6.082c-4.185,1.192 -4.277,1.215 -12.907,3.604l0.342,10.345c-4.054,0.893 -8.27,1.365 -12.596,1.365c-4.345,-0 -8.579,-0.476 -12.653,-1.378l-0.335,-9.915c-3.846,-2.034 -3.872,-1.792 -12.275,-4.941l-6.26,6.984c-7.118,-4.581 -13.177,-10.667 -17.728,-17.809l1.272,-1.277l0.236,0l0,-0.237Zm54.723,-56.84c2.524,0.726 4.901,1.798 7.076,3.162l4.507,-4.592l9.928,9.747l-4.845,4.935c1.17,2.099 2.078,4.363 2.678,6.75l6.79,0.004l-0.008,13.912l-6.856,-0.004c-0.632,2.404 -1.576,4.682 -2.789,6.788l4.528,4.796l-10.116,9.55l-4.138,-4.383c-2.15,1.308 -4.491,2.333 -6.97,3.024l0.021,6.116l-13.912,0.046l-0.02,-5.883c-2.672,-0.629 -5.197,-1.644 -7.511,-2.981l-3.405,3.758l-10.31,-9.34l3.767,-4.159c-1.354,-2.234 -2.404,-4.673 -3.091,-7.259l-5.863,0.006l-0.015,-13.911l5.766,-0.007c0.69,-2.776 1.796,-5.389 3.248,-7.767l-4.015,-3.853l9.634,-10.037l4.357,4.182c2.357,-1.353 4.93,-2.37 7.652,-2.989l0,-5.522l13.912,-0l0,5.911Zm42.543,57.905l0.006,0.008l-0.026,0.041l0.02,-0.049Zm-31.703,-84.938l-0.957,-0.419l0.444,0l0.513,0.419Z" style="fill:#fff;"/><path d="M314.247,446.416l4.241,-0.896c0.736,-2.284 0.603,-2.275 1.508,-7.14l-4.734,-2.943c0.798,-2.053 1.82,-4.054 3.072,-5.97c1.308,-2.001 2.802,-3.809 4.443,-5.414l4.536,2.696c2.089,-1.182 1.984,-1.265 5.946,-4.23l-1.312,-4.736c4.187,-1.899 8.743,-2.884 13.34,-2.887l1.227,5.46c2.293,0.706 2.282,0.573 7.158,1.415l2.916,-4.827c2.166,0.816 4.273,1.877 6.288,3.194c1.999,1.306 3.804,2.798 5.41,4.439l-0.187,0.285l-0.012,-0.017l-2.688,4.232c1.261,1.978 1.287,2.022 3.856,6.109l4.716,-1.349l-0.013,-0.02l0.552,-0.176c2.041,4.458 3.045,9.336 2.928,14.238l-4.634,0.283c-0.863,2.181 -0.883,2.228 -2.686,6.705l3.183,2.499c0.116,0.118 0.246,0.226 0.39,0.32l0.108,0.071l0.178,0.139l0.007,-0.018l1.288,0.842c-0.796,2.049 -1.817,4.046 -3.067,5.959c-1.382,2.114 -2.971,4.012 -4.723,5.685l-0.048,-0.031l0.065,-0.044l-1.742,-1.052l-0.031,-0.02c-0.056,-0.037 -0.113,-0.071 -0.171,-0.102l-2.348,-1.418c-1.949,1.305 -1.993,1.333 -6.02,3.994l1.446,4.653c-4.297,1.956 -8.984,2.949 -13.705,2.905c-0.021,-0.028 -0.043,-0.054 -0.066,-0.081l-0.965,-4.637c-2.291,-0.713 -2.341,-0.73 -7.045,-2.231l-2.963,4.878c-2.141,-0.81 -4.229,-1.865 -6.226,-3.17c-2.005,-1.311 -3.816,-2.808 -5.424,-4.453l2.837,-4.678c-1.162,-2.099 -1.247,-1.995 -4.175,-5.984l-4.997,1.335c-1.903,-4.262 -2.864,-8.899 -2.809,-13.569l0.972,-0.205l0.109,0.071l0.071,-0.109Zm42.408,-9.726c0.945,1.097 1.719,2.309 2.311,3.594l3.466,-0.759l1.642,7.494l-3.725,0.816c-0.093,1.322 -0.357,2.641 -0.801,3.924l3.133,2.05l-4.201,6.419l-3.163,-2.07c-1.017,0.919 -2.14,1.685 -3.335,2.291l0.643,3.58l-7.551,1.356l-0.587,-3.272c-1.388,-0.045 -2.777,-0.277 -4.13,-0.706l-1.836,2.829l-6.435,-4.176l1.766,-2.722c-1.043,-1.096 -1.903,-2.326 -2.567,-3.642l-2.706,0.708l-1.941,-7.422l2.994,-0.783c0.049,-1.44 0.3,-2.882 0.763,-4.283l-2.708,-1.766l4.191,-6.426l2.663,1.737c1.156,-1.074 2.455,-1.946 3.842,-2.605l-0.69,-2.99l7.474,-1.727l0.75,3.245c1.496,0.087 2.99,0.394 4.434,0.929l1.666,-2.548l6.421,4.197l-1.783,2.728Zm2.166,39.563l0,0.005l-0.024,0.011l0.024,-0.016Zm10.993,-48.77l-0.316,-0.482l0.205,0.134l0.111,0.348Z" style="fill:#fff;"/><path d="M254.184,369.264l6.857,-1.449c1.19,-3.693 0.974,-3.678 2.437,-11.543l-7.653,-4.759c1.29,-3.32 2.942,-6.555 4.967,-9.654c2.115,-3.235 4.53,-6.157 7.183,-8.752l7.335,4.357c3.377,-1.909 3.208,-2.045 9.613,-6.839l-2.121,-7.657c6.77,-3.07 14.136,-4.663 21.569,-4.668l1.984,8.828c3.707,1.143 3.69,0.927 11.574,2.289l4.714,-7.805c3.502,1.318 6.91,3.035 10.167,5.164c3.232,2.112 6.151,4.524 8.747,7.177l-0.302,0.462l-0.019,-0.029l-4.346,6.843c2.038,3.198 2.081,3.27 6.234,9.878l7.626,-2.182l-0.022,-0.033l0.893,-0.283c3.3,7.207 4.923,15.095 4.733,23.021l-7.491,0.456c-1.396,3.527 -1.428,3.604 -4.344,10.843l5.146,4.039c0.188,0.192 0.398,0.366 0.632,0.519l0.174,0.113l0.288,0.226l0.011,-0.03l2.084,1.362c-1.289,3.313 -2.939,6.542 -4.96,9.635c-2.235,3.418 -4.804,6.487 -7.637,9.192l-0.077,-0.05l0.105,-0.072l-2.817,-1.701l-0.05,-0.032c-0.09,-0.059 -0.182,-0.114 -0.276,-0.164l-3.797,-2.293c-3.151,2.11 -3.221,2.155 -9.733,6.457l2.338,7.524c-6.948,3.162 -14.526,4.768 -22.159,4.696c-0.034,-0.044 -0.07,-0.087 -0.108,-0.13l-1.559,-7.498c-3.705,-1.152 -3.785,-1.179 -11.39,-3.607l-4.792,7.887c-3.461,-1.31 -6.838,-3.015 -10.066,-5.125c-3.242,-2.12 -6.17,-4.54 -8.771,-7.201l4.587,-7.562c-1.878,-3.394 -2.015,-3.227 -6.751,-9.676l-8.078,2.158c-3.077,-6.89 -4.631,-14.388 -4.543,-21.938l1.572,-0.332l0.176,0.115l0.116,-0.177Zm68.567,-15.725c1.529,1.773 2.78,3.733 3.738,5.811l5.604,-1.228l2.654,12.117l-6.023,1.319c-0.15,2.138 -0.578,4.271 -1.294,6.345l5.065,3.315l-6.792,10.378l-5.115,-3.347c-1.644,1.486 -3.461,2.725 -5.392,3.705l1.039,5.788l-12.208,2.193l-0.95,-5.29c-2.243,-0.073 -4.49,-0.45 -6.677,-1.143l-2.968,4.574l-10.405,-6.752l2.855,-4.4c-1.687,-1.773 -3.076,-3.762 -4.151,-5.889l-4.375,1.144l-3.137,-12l4.84,-1.266c0.079,-2.328 0.485,-4.66 1.234,-6.925l-4.379,-2.855l6.776,-10.39l4.306,2.808c1.869,-1.736 3.969,-3.146 6.213,-4.212l-1.117,-4.834l12.085,-2.792l1.212,5.247c2.419,0.14 4.836,0.636 7.169,1.502l2.694,-4.121l10.382,6.786l-2.883,4.412Zm3.503,63.967l-0,0.009l-0.039,0.018l0.039,-0.027Zm17.774,-78.854l-0.51,-0.779l0.331,0.216l0.179,0.563Z" style="fill:#fff;"/></g></svg>