<?xml version="1.0" encoding="UTF-8" standalone="no"?><!DOCTYPE svg PUBLIC "-//W3C//DTD SVG 1.1//EN" "http://www.w3.org/Graphics/SVG/1.1/DTD/svg11.dtd"><svg width="100%" height="100%" viewBox="0 0 1660 2246" version="1.1" xmlns="http://www.w3.org/2000/svg" xmlns:xlink="http://www.w3.org/1999/xlink" xml:space="preserve" xmlns:serif="http://www.serif.com/" style="fill-rule:evenodd;clip-rule:evenodd;"><g><path id="path33" d="M918.28,175.509c30.214,27.048 23.552,59.671 25.253,97.869l-2.386,74.955c-7.937,39.166 -25.3,45.521 -58.395,63.545c-0,0 -89.956,28.395 -90.357,29.977c-45.12,-2.929 -45.38,-6.472 -59.199,-44.198l-14.197,-54.049c-8.386,-29.741 -8.481,-54.805 -2.363,-84.05l-0.401,-52.088l9.071,-43.017c52.868,-168.855 190.47,-86.128 192.974,11.056Z" style="fill:#fcb8ac;fill-rule:nonzero;"/><path id="path35" d="M738.299,134.381c-0.945,-1.559 -13.182,-6.472 -12.284,-14.929c-3.615,-39.804 17.906,-65.128 37.678,-97.94c56.6,-38.789 106.917,-16.678 166.848,0.85c131.082,50.293 151.209,96.263 104.459,270.221c-141.382,233.44 -54.308,16.016 -18.024,-52.301c-4.677,-62.576 -39.71,25.466 -73.443,33.096c-0.472,-33.167 3.166,-77.837 -25.253,-97.869c6.142,-92.365 -141.736,-149.58 -179.981,-41.128Z" style="fill:#5f4514;fill-rule:nonzero;"/><path id="path37" d="M992.456,362.152l-7.89,18.142l-3.544,69.853l6.308,36.71c13.89,52.466 -64.703,36.001 -87.216,35.906c-77.459,-0.047 -107.696,7.772 -117.972,-81.286l15.946,-11.15c-5.15,0.685 28.347,-8.22 49.159,-7.795l39.899,-22.017l33.686,-17.811l20.315,-34.371l-1.913,-30.355l4.299,-44.6l23.174,-19.938c82.632,-111.523 48.261,36.356 25.749,108.712Z" style="fill:#fcb8ac;fill-rule:nonzero;"/><path id="path30" d="M763.977,444.241c-35.907,44.576 -38.269,27.214 -37.088,50.884c1.181,23.693 -0.402,57.214 -0,60.781c0.401,3.543 33.142,-3.165 33.142,-3.165c0,-0 45.781,-9.851 45.781,-11.835l0,-32.364l-15,-26.835l-8.67,-40.23l-12.236,-0.803l-5.929,3.567Z" style="fill:#ff365c;fill-rule:nonzero;"/><path id="path32" d="M727.29,491.18l-105.759,26.056c-139.232,19.748 -152.792,80.388 -187.824,199.258c-24.119,46.418 -47.364,93.262 -70.632,140.106c-40.348,56.955 -44.458,106.421 -54.852,170.864c7.11,135.689 264.149,140.626 147.571,97.066c-66.852,-113.602 -25.56,-159.69 108.121,-143.249c9.875,1.583 60.782,20.906 67.491,22.891c6.708,1.96 12.26,0.661 20.906,-3.945c12.071,-6.426 48.663,-8.788 51.923,-13.465c28.961,-12.048 15.874,-90.641 23.835,-127.02c26.646,-45.143 1.677,-88.326 13.819,-147.571c0.78,-0.024 3.142,-38.671 3.142,-38.671c12.071,-59.6 1.819,-76.396 67.207,-82.845c12.732,-4.039 14.551,-26.268 6.354,-40.702c-1.181,-2.362 -12.378,-8.646 -12.378,-8.646c-0,0 -73.798,14.197 -75.38,15.001c-1.583,0.779 -3.544,-9.095 -3.544,-9.095c0,-0 1.181,-24.851 0.78,-30.379c-0.402,-5.528 -0.78,-25.654 -0.78,-25.654Z" style="fill:#f44b70;fill-rule:nonzero;"/><path id="path34" d="M1049.98,551.394c58.018,5.953 110.413,20.103 162.95,43.513c46.206,27.025 48.663,39.545 55.797,53.742c10.89,21.568 -121.586,4.417 -171.194,-10.016c-110.507,-17.859 -67.207,-21.072 -93.31,-101.743l-19.536,-34.608l-0,-26.788c25.205,-7.512 64.986,64.727 65.293,75.9Z" style="fill:#c33353;fill-rule:nonzero;"/><path id="path38" d="M1043.98,616.215c0,2.433 30.214,13.701 18.261,15.449c-19.56,2.882 -82.42,-6.472 -95.72,-7.677c-245.653,-22.087 -220.778,-18.402 -146.886,-39.663c1.559,-2.764 2.953,-16.394 3.142,-18.567c-1.819,-18.686 -7.205,-18.993 -16.56,-24.45c-0,0 -1.984,-11.055 -1.984,-14.599c0.378,-23.811 -1.583,-19.418 22.111,-12.638c8.433,2.622 46.867,9.544 48.922,7.512c26.978,1.465 53.648,1.299 80.105,-4.346c9.071,-1.985 14.079,-0.048 21.709,-7.512c7.607,-7.442 9.072,-4.323 11.835,-0c2.764,4.346 15.308,27.166 15.308,27.166c5.74,20.103 11.599,37.961 18.237,57.285c1.559,5.126 4.323,9.473 7.488,12.236c2.74,2.764 11.741,7.205 14.032,9.804Z" style="fill:#fffefe;fill-rule:nonzero;"/><path id="path40" d="M766.74,601.687c254.347,24.78 400.808,43.206 533.497,53.647l213.101,26.836c21.969,35.41 -2.386,85.467 -15.78,157.067l-70.632,320.798c-39.521,20.575 -199.258,-3.237 -309.766,-1.182c-135.783,-5.716 -272.394,-9.756 -407.232,-17.362c-27.663,2.575 -12.78,-88.279 -1.583,-144.43c-0,-4.724 13.819,-145.209 16.961,-164.934c10.441,-51.261 6.449,-208.636 41.434,-230.44Z" style="fill:#c3dfff;fill-rule:nonzero;"/><path id="path44" d="M488.015,1136.22c0,-0 53.01,-24.544 69.191,-25.655c16.182,-1.133 85.94,-7.275 100.444,-6.141c14.528,1.11 35.458,6.661 36.592,3.874c1.11,-2.788 6.378,-60.238 6.378,-64.703c0,-4.465 5.386,-32.788 7.725,-46.537c2.339,-13.748 2.339,-26.575 2.339,-26.575c-0,-0 0.59,8.504 -11.977,12.331c-12.591,3.85 -35.458,9.425 -37.702,9.425c-26.151,15.024 -50.151,1.606 -77.554,-6.685c-62.954,-18.969 -158.485,-25.418 -159.052,65.293c0.544,3.898 12.827,45.757 16.182,48.545c13.536,24.001 22.89,29.623 47.434,36.828Z" style="fill:#fcb8ac;fill-rule:nonzero;"/><path id="path46" d="M490.519,1456.38c-1.393,43.726 -0.708,43.608 28.419,54.451c39.45,19.417 30.567,94.42 18.945,121.161c-3.945,7.89 -59.6,19.725 -65.907,26.032c-128.178,6.378 -251.063,48.309 -343.688,115.61c-23.221,13.299 -122.649,-6.307 -115.232,-56.033c1.583,-6.308 12.615,-59.175 14.197,-64.703c65.199,-152.131 206.794,-203.439 348.035,-275.442c15.803,-6.307 54.474,-26.032 67.891,-29.197c13.418,-3.142 35.505,0.803 39.45,7.11c3.945,6.307 41.836,42.616 48.144,50.506c78.711,71.34 -38.364,37.064 -40.254,50.505Z" style="fill:#fefeff;fill-rule:nonzero;stroke:#000;stroke-opacity:0.04;stroke-width:6.14px;"/><path id="path930" d="M824.522,75.939c-2.245,0.543 -6.379,15.614 -15.308,27.898c-12.709,30.615 -28.135,73.396 -41.765,106.326c0,0 -4.725,33.025 -5.788,41.694c-13.866,37.584 16.678,150.643 20.481,189.62c0,0 -12.236,-0.803 -25.512,-5.149c-9.071,-2.977 -9.686,-8.245 -14.741,-15.851c0,-0 -7.465,-15.946 -11.953,-35.316c-5.15,-22.182 -13.347,-46.891 -14.244,-50.86c-1.749,-7.796 -2.221,-36.828 -2.788,-44.08c-0.543,-7.252 2.646,-58.348 2.788,-63.616c0.543,-19.135 9.614,-62.152 9.614,-62.152c0,0 14.386,-37.182 18.284,-42.214c3.921,-5.008 16.205,-29.008 22.324,-31.796c6.141,-2.787 27.922,-13.394 39.072,-16.181c11.173,-2.788 19.536,1.677 19.536,1.677Z" style="fill:#cfab9c;fill-opacity:0.65;fill-rule:nonzero;"/><path id="path50" d="M852.373,189.304c-9.071,-0.378 -46.159,3.567 -48.143,5.528c-1.961,1.984 -9.071,7.111 -9.875,5.528c-0.779,-1.583 -1.96,-10.654 -1.96,-12.237c-0,-1.559 5.905,-8.669 8.291,-9.472c2.363,-0.78 29.978,-3.945 35.505,-3.945c5.528,-0 25.253,3.165 26.434,4.748c1.181,1.582 13.819,9.071 16.583,11.835c16.229,23.835 -19.063,-1.559 -26.835,-1.985Z" style="fill:#5f4514;fill-rule:nonzero;"/><path id="path54" d="M737.621,2245.7c-111.867,-39.885 -139.972,-105.269 -182.542,-132.315c-38.734,-24.609 -45.614,-41.412 -45.614,-41.412c-0,-0 11.055,-56.837 12.614,-72.617c13.158,-97.018 15.473,-223.164 45.781,-314.088c3.166,-6.331 67.869,-211.518 67.869,-217.825c-0,-6.308 -72.593,-20.529 -72.593,-20.529c-0,0 -8.434,-12.402 -9.827,-14.622c-1.394,-2.244 -33.757,-36.285 -37.679,-41.576c-3.897,-5.315 -26.504,-26.788 -28.725,-30.143c-2.244,-3.354 -14.244,-10.89 -19.536,-13.394c-5.315,-2.504 -18.426,1.677 -24.284,1.961c-5.859,0.26 -28.466,12.543 -34.584,14.221c-6.142,1.677 -22.063,9.496 -24.284,10.323c-2.244,0.827 -10.323,-3.071 -10.89,-5.859c-0.543,-2.787 -2.788,-38.505 -1.677,-42.686c0.307,-28.04 -0.071,-101.176 6.709,-119.153c0.826,-6.142 13.394,-36.828 18.402,-47.151c32.174,-49.514 67.655,-10.89 89.294,-30.686c19.37,-7.229 34.607,-8.15 54.427,-13.678c34.442,-4.748 69.261,-8.528 104.058,-9.496c3.921,-0 26.505,-0.827 30.142,0.283c3.638,1.111 15.899,0.567 17.576,1.394c1.677,0.851 5.031,18.142 5.575,23.717c0.567,5.575 2.409,10.536 12.095,11.127c9.378,0.779 118.326,5.386 136.917,5.929c130.941,8.079 180.549,114.405 172.305,221.109c-8.174,69.947 -47.553,147.382 -77.696,198.006c-29.245,85.727 -52.253,180.076 -65.411,259.591c-15.19,62.175 -28.773,135.075 -53.671,189.029c-5.504,10.654 -84.751,230.54 -84.751,230.54Z" style="fill:#000061;fill-rule:nonzero;"/><path id="path58" d="M586.404,1620.13c0,0 -49.324,4.347 -46.962,-0.779c1.701,-37.183 18.827,-90.31 -20.103,-107.72c-2.764,-0.803 -19.134,-8.67 -22.111,-9.473c-16.819,-12.402 -11.646,-29.528 -6.709,-45.781c1.229,-4.937 15.072,-6.567 22.489,-3.945c7.867,2.764 30.379,-2.362 34.348,-2.362c3.945,-0 3.945,-5.528 15.78,-3.166c11.835,2.363 53.647,11.056 59.175,13.82c5.528,2.764 11.835,3.165 12.638,5.126c0.78,1.984 -0.402,0.401 -7.11,27.237c-6.709,26.835 -29.6,99.428 -31.56,103.373c-1.985,3.945 -9.875,23.67 -9.875,23.67Z" style="fill:#fcb8ac;fill-rule:nonzero;"/><path id="path64" d="M82.909,1771.67c20.221,-120.216 12.685,-165.926 105.735,-230.062c21.308,-16.961 45.781,-27.213 74.577,-42.993c28.82,-15.804 105.759,-52.49 112.067,-59.199c6.33,-6.709 54.852,-41.033 63.946,-46.962c9.072,-5.929 28.608,-8.292 40.821,-14.599c27.237,-6.354 9.661,-16.205 -5.505,-28.418c-10.512,-7.914 -26.244,-3.614 -34.536,-0.78c-8.268,2.811 -26.599,12.426 -32.765,13.016c-98.247,50.27 -250.33,115.658 -306.978,168.1c-3.968,3.945 -32.764,41.434 -36.308,44.978c-27.379,38.954 -54.025,104.46 -52.49,153.123c0.591,34.701 59.27,47.316 71.436,43.796Z" style="fill:#ff715f;fill-rule:nonzero;"/><path id="path901" d="M730.763,624.507c13.961,-7.276 27.095,-21.946 24.355,-7.442c-2.717,14.434 -14.197,139.469 -17.646,138.005c-8.245,-3.426 -0,-0 -0,-0c-13.465,14.528 -22.324,-120.004 -6.709,-130.563Z" style="fill:#ff365c;fill-rule:nonzero;"/><path id="path903" d="M1018.51,565.379c34.324,-37.49 50.505,-28.418 34.702,-37.891c-15.78,-9.473 -23.67,-20.906 -28.017,-25.654c-4.323,-4.725 -9.071,-9.473 -15.78,-14.977c-6.709,-5.528 -5.244,-9.969 -14.977,-10.654c-9.756,-0.709 -8.055,-15.615 -9.756,-0.709c-1.701,14.906 1.465,33.852 4.228,37.395c2.764,3.543 15.308,24.001 15.308,24.001c-0,-0 4.417,15.851 6.78,22.559c2.362,6.709 7.512,5.93 7.512,5.93Z" style="fill:#ff365c;fill-rule:nonzero;"/><path id="path919" d="M1333.47,1218.83c-1742.63,-1799.91 -871.326,-899.957 0,-0Z" style="fill:#000061;fill-rule:nonzero;"/><path id="path921" d="M782.142,441.477c65.105,-18.945 110.082,-32.764 110.082,-32.764c0.426,0.637 22.915,-16.276 28.608,-26.009c19.937,-23.08 6,-41.033 32.174,-41.08c-0,2.764 -7.512,26.457 -10.654,35.907c-3.165,9.472 -13.04,22.11 -20.93,28.418c-7.89,6.307 -20.504,15.402 -30.379,18.945c-9.874,3.544 -35.505,11.434 -43.395,13.819c-7.913,2.363 -38.67,7.891 -45.379,9.473c-19.394,3.449 -19.631,3.095 -20.127,-6.709Z" style="fill:#cfab9c;fill-rule:nonzero;"/><path id="path937" d="M1009.8,1308.1c102.688,-47.978 87.05,-37.938 131.697,-51.332c44.647,-13.394 82.656,-15.331 137.272,-26.788c54.71,-11.457 79.538,-15.875 100.396,-17.458c-122.295,-62.836 211.519,-73.396 255.268,-15.047c71.553,107.365 -16.465,238.023 -172.092,271.354c-131.508,28.324 -284.654,73.136 -448.076,94.869c-37.962,4.465 -72.806,2.835 -72.806,2.835c0,0 37.088,-75.38 49.372,-99.948c9.236,-58.348 35.363,-100.373 18.969,-158.485Z" style="fill:#000061;fill-rule:nonzero;"/><path id="path939" d="M1032.31,1155.69c201.455,7.134 171.147,4.205 222.952,7.299c72.593,4.371 120.358,2.882 147.571,-0.189c40.868,-4.582 7.276,12.922 6.52,23.552c-19.654,1.016 -20.882,16.56 -30.19,26.174c-106.987,21.875 -246.385,39.356 -353.561,88.397c-38.222,22.134 -18.946,-10.253 -20.505,-16.583c-12.426,-51.569 -42.308,-74.034 -77.341,-108.901c-6.331,-6.308 -33.828,-16.276 -39.474,-17.363c-150.311,-21.308 105.476,-2.055 144.028,-2.386Z" style="fill:#000048;fill-rule:nonzero;"/><ellipse id="path926" cx="1110.05" cy="905.523" rx="48.143" ry="47.364" style="fill:#f6f9ff;"/><path id="path928" d="M716.613,907.554c23.67,33.143 61.183,92.673 91.16,108.453c30.001,15.78 99.452,72.616 137.343,80.506c37.867,7.89 112.066,33.143 134.154,39.45c22.087,6.307 53.481,23.032 53.481,23.032l-431.209,-17.788c-5.788,-10.772 -1.252,5.646 -7.3,-36.544l22.371,-197.109Z" style="fill:#97cbf9;fill-opacity:0.57;fill-rule:nonzero;"/><path id="path52" d="M726.109,194.053c-3.165,1.582 -9.874,2.362 -9.874,2.362c-0,-0 -1.181,-9.071 -1.583,-11.434c-0.401,-2.362 2.362,-2.362 7.512,-2.362c5.126,0 9.449,-3.968 15.379,-1.583c5.929,2.363 8.976,2.457 12.638,3.945c6,2.41 4.535,7.607 1.181,10.253c-5.292,5.953 -17.906,-1.276 -25.253,-1.181Z" style="fill:#5f4514;fill-rule:nonzero;"/><path id="path932" d="M824.522,75.939l27.898,-24.001c0,0 15.638,-11.174 18.969,-17.859c3.355,-6.709 11.717,-20.103 10.607,-24.001c-1.11,-3.897 -25.017,-6.519 -29.292,-8.22c-2.788,-1.134 -36.285,-1.677 -43.821,-0.709c-6.992,0.898 -27.898,9.496 -31.229,12.284c-3.354,2.787 -21.355,11.433 -24.568,18.402c-3.307,7.181 -13.394,22.04 -15.614,29.032c-2.244,6.993 -10.89,35.151 -11.174,46.868c-0.283,11.717 12.001,26.646 12.001,26.646c-0,0 5.858,-21.614 14.787,-29.434c8.93,-7.819 13.961,-18.425 21.757,-20.646c7.819,-2.244 49.679,-8.362 49.679,-8.362Z" style="fill:#514217;fill-rule:nonzero;"/><path id="path934" d="M82.909,1771.67c29.575,-31.961 72.191,-64.325 91.136,-75.38c18.946,-11.032 93.121,-32.34 111.287,-44.175c18.142,-11.858 100.231,-25.276 119.177,-26.835c18.922,-1.583 51.285,-6.709 93.121,-6.331l41.812,0.402c0,-0 0.213,6.401 -5.906,15.189c-13.819,10.654 -71.435,25.465 -80.104,24.662c-8.694,-0.779 -56.837,4.748 -67.089,6.307c-10.252,1.583 -90.759,22.891 -101.814,30.001c-11.032,7.111 -63.12,23.67 -73.396,27.615c-10.252,3.945 -54.45,25.253 -62.34,32.364c-7.89,7.11 4.748,11.055 -20.505,18.142c-25.276,7.11 -45.379,-1.961 -45.379,-1.961Z" style="fill-opacity:0.03;fill-rule:nonzero;"/><path id="path940" d="M805.812,508.542c0,0 1.89,-0.07 4.04,0.426c2.15,0.496 5.858,1.748 6.921,2.055c1.087,0.283 10.253,3.023 12.119,3.709c1.842,0.685 24.993,4.488 27.733,5.173c2.74,0.685 21.686,2.244 21.379,2.528c-0.284,0.307 -14.103,-0.922 -14.103,-0.922c-0,0 -0.709,23.103 -1.89,26.033c-1.559,24.189 -3.425,42.19 -4.937,63.592c-2.15,1.937 26.883,2.41 26.883,2.41l-117.217,-11.859c0,-0 1.701,-1.512 2.859,-1.89c1.181,-0.401 5.079,-3.331 7.134,-3.52c2.055,-0.212 40.371,-11.433 42.899,-11.953c2.504,-0.543 2.031,-9.827 2.126,-10.819c0.094,-0.969 1.016,-7.748 1.016,-7.748l-1.512,-9.733l-3.993,-8.008l-11.055,-6.709c-0,0 -1.063,-4.417 -1.158,-6.165c-0.094,-1.772 -0.968,-18.355 -0.779,-20.127c0.189,-1.748 1.535,-6.473 1.535,-6.473Z" style="fill:#dcd4e9;fill-opacity:0.37;fill-rule:nonzero;"/><path id="path942" d="M827.663,429.028c8.835,14.646 14.694,34.159 19.678,40.513c4.961,6.355 9.615,24.969 14.575,33.001c4.985,8.008 1.985,18.969 1.985,18.969c-0,0 5.457,1.087 -0,0c-5.433,-1.11 -11.363,-1.866 -16.89,-2.433c-5.528,-0.543 -41.199,-10.536 -41.199,-10.536c0,0 -5.22,-7.134 -5.764,-9.898c-0.543,-2.763 -9.236,-16.937 -9.236,-16.937c-0,-0 -1.819,-8.74 -2.079,-12.331c-0.283,-3.591 -2.268,-6.922 -4.441,-17.41l-2.15,-10.489l45.521,-12.449Z" style="fill:#cfab9c;fill-rule:nonzero;"/><path id="path946" d="M426.242,1034.27c13.276,1.559 83.601,6.26 97.656,7.04c14.056,0.779 92.224,5.267 104.696,1.96c17.576,-4.701 74.601,-16.016 74.601,-16.016l7.489,-56.765l-10.749,8.078c0,0 -26.032,9.615 -28.371,10.796c-2.362,1.158 -28.914,10.158 -36.922,10.158c-7.181,-0 -38.812,-9.945 -47.08,-12.308c-5.457,-1.559 -14.056,-6.071 -22.655,-6.449c-8.598,-0.401 -21.095,2.339 -34.371,1.56c-13.276,-0.78 -44.151,-0.78 -51.167,0.377c-7.039,1.182 -35.127,9.757 -37.867,11.694c-2.716,1.96 -10.961,23.481 -11.74,25.418c-0.78,1.961 -3.52,14.457 -3.52,14.457Z" style="fill:#dfb0a2;fill-opacity:0.94;fill-rule:nonzero;"/><path id="path899" d="M331.893,1078.35c18.142,-59.175 26.835,-71.01 48.143,-92.318c40.04,-43.088 117.476,-78.9 153.902,-32.363c10.252,12.615 34.725,28.418 28.395,28.418c-6.308,0 -44.199,-0.803 -54.451,-1.582c-10.252,-0.804 -45.781,5.527 -56.033,10.252c-63.923,48.592 7.748,134.768 36.166,145.469c8.056,9.402 -37.654,8.079 -55.112,8.433c-18.803,0.378 -57.686,-21.52 -62.34,-24.473c-12.898,-8.197 -49.419,-38.245 -38.67,-41.836Z" style="fill:#ff365c;fill-rule:nonzero;"/><path id="path897" d="M600.389,689.28c36.568,94.68 41.411,60.734 14.457,113.508c-26.93,52.773 -15.544,69.97 -34.796,99.451c-19.229,29.505 20.67,104.626 -7.938,78.711c-28.63,-25.937 -34.394,-39.898 -28.63,-64.726c5.787,-24.851 13.488,-52.773 23.103,-76.065c9.614,-23.269 11.551,-38.789 15.402,-58.963c3.85,-20.174 18.402,-91.916 18.402,-91.916Z" style="fill:#c33353;fill-rule:nonzero;"/></g></svg>