<svg id="figma-1" xmlns="http://www.w3.org/2000/svg" width="80.911" height="121.367" viewBox="0 0 80.911 121.367">
  <path id="Path_12" data-name="Path 12" d="M20.228,240.456a20.235,20.235,0,0,0,20.228-20.228V200H20.228a20.228,20.228,0,0,0,0,40.456Z" transform="translate(0 -119.089)" fill="#0acf83"/>
  <path id="Path_13" data-name="Path 13" d="M0,120.228A20.235,20.235,0,0,1,20.228,100H40.456v40.456H20.228A20.235,20.235,0,0,1,0,120.228Z" transform="translate(0 -59.544)" fill="#a259ff"/>
  <path id="Path_14" data-name="Path 14" d="M0,20.228A20.235,20.235,0,0,1,20.228,0H40.456V40.456H20.228A20.235,20.235,0,0,1,0,20.228Z" fill="#f24e1e"/>
  <path id="Path_15" data-name="Path 15" d="M100,0h20.228a20.228,20.228,0,0,1,0,40.456H100Z" transform="translate(-59.544)" fill="#ff7262"/>
  <path id="Path_16" data-name="Path 16" d="M140.456,120.228A20.228,20.228,0,1,1,120.228,100,20.235,20.235,0,0,1,140.456,120.228Z" transform="translate(-59.544 -59.544)" fill="#1abcfe"/>
</svg>
