<svg id="_9b566889088440e" data-name="9b566889088440e" xmlns="http://www.w3.org/2000/svg" width="45.408" height="44.287" viewBox="0 0 45.408 44.287">
  <path id="Path_28" data-name="Path 28" d="M22.7,0a22.706,22.706,0,0,0-7.178,44.248c1.135.21,1.551-.493,1.551-1.092,0-.541-.021-2.33-.031-4.227C10.731,40.3,9.4,36.25,9.4,36.25a6.012,6.012,0,0,0-2.521-3.322c-2.06-1.409.155-1.38.155-1.38a4.772,4.772,0,0,1,3.48,2.34c2.025,3.471,5.311,2.467,6.607,1.887a4.836,4.836,0,0,1,1.442-3.036c-5.043-.574-10.344-2.521-10.344-11.22a8.787,8.787,0,0,1,2.339-6.094,8.158,8.158,0,0,1,.22-6.008s1.907-.61,6.245,2.327a21.535,21.535,0,0,1,11.37,0c4.333-2.937,6.237-2.327,6.237-2.327a8.148,8.148,0,0,1,.223,6.008,8.77,8.77,0,0,1,2.337,6.094c0,8.72-5.311,10.64-10.367,11.2a5.427,5.427,0,0,1,1.54,4.2c0,3.038-.026,5.483-.026,6.23,0,.6.409,1.312,1.559,1.089A22.707,22.707,0,0,0,22.7,0ZM8.5,32.342c-.05.113-.227.147-.389.069s-.257-.228-.2-.341.227-.149.391-.071S8.561,32.229,8.5,32.342Zm1.117,1c-.108.1-.32.054-.464-.1a.347.347,0,0,1-.067-.472c.112-.1.317-.053.466.1S9.733,33.237,9.62,33.339Zm.766,1.275c-.139.1-.367.006-.507-.2s-.139-.444,0-.541.365-.01.508.191S10.528,34.515,10.386,34.614Zm1.3,1.477c-.124.137-.39.1-.584-.087s-.254-.443-.129-.58.393-.1.588.087S11.815,35.955,11.682,36.09Zm1.675.5c-.055.178-.31.259-.567.183s-.425-.286-.373-.466.31-.263.569-.182S13.41,36.408,13.357,36.589Zm1.906.211c.006.187-.212.343-.482.346s-.491-.146-.494-.33.213-.343.485-.347S15.262,36.614,15.262,36.8Zm1.872-.072c.032.183-.155.37-.423.42s-.508-.065-.541-.246.158-.375.421-.423S17.1,36.543,17.135,36.729Z" fill="#fff"/>
</svg>
