<svg xmlns="http://www.w3.org/2000/svg" width="89.951" height="102.888" viewBox="0 0 89.951 102.888">
  <path id="html-5" d="M27.3,3.406l6.678,85.428a3.16,3.16,0,0,0,2.2,2.766l35.138,11.14a3.161,3.161,0,0,0,1.91,0L108.363,91.6a3.16,3.16,0,0,0,2.2-2.766l5.854-74.9.823-10.533A3.16,3.16,0,0,0,114.086,0H30.455A3.16,3.16,0,0,0,27.3,3.406Zm72.807,26.506H56.592l1.313,12.111H99.165l-2.7,34.528-24.2,7.671-24.2-7.671-1.41-18.039h12.7V67.36L72.61,70.915,85.776,67.36l1.021-14.1H46.254L43.562,18.821h57.416Z" transform="translate(-27.295)" fill="#f05033"/>
</svg>
