<svg xmlns="http://www.w3.org/2000/svg" width="90.066" height="90.066" viewBox="0 0 90.066 90.066">
  <g id="layer1" transform="translate(-187.643 -331.434)">
    <g id="g2987" transform="translate(187.643 331.434)">
      <path id="path2991" d="M0,46.033V1H90.066V91.066H0ZM39.428,83.642c5.416-.936,8.678-4.4,9.4-9.983.073-.562.125-7.218.128-16.19l0-15.236H40.588l0,14.4c0,8.618-.054,14.887-.13,15.614-.254,2.41-1.155,3.583-3.063,3.987-2.7.573-4.715-.512-6.368-3.431-.211-.372-.444-.676-.518-.676-.122,0-6.455,3.773-6.712,4s1.336,2.689,2.586,3.956c3.071,3.113,7.946,4.444,13.047,3.563Zm32.406.066a13.4,13.4,0,0,0,8.309-3.939,7.792,7.792,0,0,0,1.67-2.407,9.837,9.837,0,0,0,1.127-4.787c.15-3.921-.886-6.693-3.4-9.092-1.8-1.719-4.069-3.047-8.353-4.889-4.394-1.889-5.746-2.752-6.39-4.083a4.087,4.087,0,0,1,.055-3.3q1.064-2.166,4.1-2A5.3,5.3,0,0,1,73.384,51.9l.584.879,2.951-1.892c1.623-1.041,3.1-2.008,3.281-2.15l.33-.258L79.8,47.4a12.051,12.051,0,0,0-7.287-5.181,21.964,21.964,0,0,0-6.674-.192,11.375,11.375,0,0,0-6.52,3.231,9.957,9.957,0,0,0-2.967,5.432,15.736,15.736,0,0,0,.264,6.029c1.167,3.894,3.79,6.4,9.179,8.782l3.649,1.612c3.85,1.7,5.069,2.923,5.069,5.074,0,1.99-1.267,3.375-3.659,4a10.993,10.993,0,0,1-5.065-.245,9.784,9.784,0,0,1-4.783-3.855c-.347-.524-.554-.724-.692-.67-.4.153-6.716,3.854-6.716,3.935a20.55,20.55,0,0,0,2.781,3.778c3.708,3.727,9.227,5.363,15.451,4.578Z" transform="translate(0 -1)" fill="#eed94d"/>
      <path id="path2989" d="M195.528,360.084a13.228,13.228,0,0,1-8.473-3.752c-1.25-1.268-2.854-3.721-2.586-3.956s6.59-4,6.712-4c.074,0,.308.3.518.676,1.652,2.919,3.665,4,6.368,3.431,1.908-.4,2.809-1.577,3.063-3.987.077-.728.129-7,.13-15.614l0-14.4h8.375l0,15.236c0,8.972-.055,15.629-.128,16.19-.917,7.062-6,10.759-13.977,10.173Zm32.526.009c-5.665-.394-10.082-2.815-12.892-7.065a16.6,16.6,0,0,1-.886-1.424c0-.081,6.317-3.782,6.716-3.935.139-.053.346.147.692.67a9.784,9.784,0,0,0,4.783,3.855,10.993,10.993,0,0,0,5.065.245c2.391-.623,3.659-2.008,3.659-4,0-2.151-1.219-3.371-5.069-5.074l-3.649-1.612c-5.389-2.379-8.012-4.888-9.179-8.782a15.736,15.736,0,0,1-.264-6.029A9.957,9.957,0,0,1,220,321.513a11.375,11.375,0,0,1,6.52-3.231,21.964,21.964,0,0,1,6.674.192,12.051,12.051,0,0,1,7.287,5.181l.727,1.078-.33.258c-.182.142-1.658,1.109-3.281,2.15l-2.951,1.892-.584-.879a5.3,5.3,0,0,0-4.435-2.681q-3.027-.173-4.1,2a2.989,2.989,0,0,0-.354,1.721c.026,2.336,1.124,3.265,6.689,5.657,4.285,1.842,6.554,3.17,8.353,4.889,2.511,2.4,3.547,5.171,3.4,9.092a9.837,9.837,0,0,1-1.127,4.787c-2.16,4.491-7.639,6.95-14.433,6.478Z" transform="translate(-160.674 -277.253)" fill="#31322f"/>
    </g>
  </g>
</svg>
