<?xml version="1.0" encoding="UTF-8" standalone="no"?><!DOCTYPE svg PUBLIC "-//W3C//DTD SVG 1.1//EN" "http://www.w3.org/Graphics/SVG/1.1/DTD/svg11.dtd"><svg width="100%" height="100%" viewBox="0 0 668 801" version="1.1" xmlns="http://www.w3.org/2000/svg" xmlns:xlink="http://www.w3.org/1999/xlink" xml:space="preserve" xmlns:serif="http://www.serif.com/" style="fill-rule:evenodd;clip-rule:evenodd;stroke-linecap:round;stroke-linejoin:round;stroke-miterlimit:1.5;"><g><path d="M276.991,291.361l-265.118,27.575l72.119,113.565l256.593,-37.329l-63.594,-103.811Z" style="fill:#e7c296;"/><path d="M645.502,322.044l-240.981,-29.985l-64.392,103.026l220.536,36.296l84.837,-109.337Z" style="fill:#eed0ac;"/><g><path d="M340.711,394.562l-257.411,37.848l211.246,41.775l45.434,-7.768l0.731,-71.855Z" style="fill:#ae885b;"/><path d="M560.877,422.325l-220.789,-27.427l-1.132,73.239l220.517,-32.765l1.404,-13.047Z" style="fill:#d4ad84;"/><g><path d="M322.909,0.049c85.024,2.296 156.532,90.101 146.175,163.961c-7.263,51.799 -37.111,83.39 -62.365,127.411c-10.631,18.532 -19.878,51.103 -27.105,75.926c-2.657,9.129 -0.393,24.056 -8.882,25.049c-16.803,1.966 -41.437,1.158 -51.495,1.567c-12.813,0.52 -41.35,-0.349 -53.751,-0.43c-15.999,-0.103 -11.353,-23.519 -17.21,-41.535c-7.781,-23.94 -15.66,-59.141 -28.247,-75.119c-29.07,-36.899 -55.897,-79.111 -57.189,-123.586c-2.303,-79.312 76.107,-155.511 160.069,-153.244Z" style="fill:#fed154;"/><path d="M433.121,56.782c26.362,31.239 41.055,70.919 35.963,107.228c-7.263,51.799 -37.111,83.39 -62.365,127.411c-10.631,18.532 -19.878,51.103 -27.105,75.926c-2.657,9.129 -0.393,24.056 -8.882,25.049c-16.803,1.966 -41.437,1.158 -51.495,1.567c-12.813,0.52 -41.35,-0.349 -53.751,-0.43c-15.999,-0.103 -11.353,-23.519 -17.21,-41.535c-7.781,-23.94 -15.66,-59.141 -28.247,-75.119l-0.523,-0.666c88.864,5.131 219.271,-131.789 213.615,-219.431Z" style="fill:#f5c03e;"/><ellipse cx="314.838" cy="456.126" rx="38.424" ry="33.883" style="fill:#202d58;"/><path d="M361.891,384.766l34.44,-215.347l-29.294,27.314l-12.272,-10.292l-21.376,10.292l-12.272,-5.938l-19.001,7.917l-17.022,-10.688l-15.834,11.084l-30.085,-25.731l30.877,215.347" style="fill:none;stroke:#ddab37;stroke-width:18.77px;"/><path d="M376.999,383.906l-122.844,0l0,51.675c0,6.592 2.619,12.914 7.28,17.575c4.662,4.661 10.984,7.28 17.576,7.28c21.258,0 51.707,0 73.003,0c6.626,0 12.981,-2.632 17.667,-7.318c4.686,-4.686 7.318,-11.041 7.318,-17.667c0,-22.329 0,-51.545 0,-51.545Z" style="fill:#92bcd5;"/><path d="M258.96,33.286c5.957,5.169 -1.036,22.996 -15.606,39.786c-14.57,16.789 -31.235,26.223 -37.191,21.054c-5.957,-5.169 1.036,-22.997 15.606,-39.786c14.57,-16.789 31.235,-26.223 37.191,-21.054Z" style="fill:#fff;"/><g><path d="M546.04,10.64c-0.588,-0.986 -1.543,-1.698 -2.656,-1.98c-1.113,-0.282 -2.292,-0.11 -3.278,0.478c-12.859,7.664 -55.346,32.987 -67.811,40.416c-1.914,1.141 -2.541,3.618 -1.4,5.532c0.259,0.435 0.524,0.879 0.783,1.314c1.141,1.914 3.617,2.541 5.531,1.4c12.532,-7.47 55.423,-33.033 68.022,-40.542c1.937,-1.154 2.572,-3.66 1.417,-5.597c-0.201,-0.338 -0.406,-0.681 -0.608,-1.021Z" style="fill:#f5c03e;"/><path d="M586.573,108.367c-0.294,-1.11 -1.016,-2.057 -2.009,-2.634c-0.992,-0.577 -2.173,-0.736 -3.282,-0.443c-14.472,3.831 -62.287,16.485 -76.315,20.198c-2.154,0.57 -3.438,2.779 -2.868,4.933c0.129,0.489 0.262,0.99 0.391,1.479c0.57,2.154 2.779,3.438 4.932,2.868c14.104,-3.733 62.374,-16.508 76.553,-20.261c2.179,-0.577 3.479,-2.811 2.902,-4.991c-0.101,-0.38 -0.203,-0.767 -0.304,-1.149Z" style="fill:#f5c03e;"/><path d="M587.254,207.052c0.024,-1.147 -0.408,-2.257 -1.202,-3.086c-0.794,-0.829 -1.885,-1.308 -3.032,-1.333c-14.967,-0.321 -64.417,-1.38 -78.924,-1.691c-2.228,-0.047 -4.073,1.72 -4.121,3.948c-0.011,0.506 -0.022,1.024 -0.033,1.529c-0.047,2.228 1.72,4.072 3.947,4.12c14.587,0.313 64.506,1.382 79.17,1.696c2.254,0.048 4.121,-1.74 4.169,-3.994c0.009,-0.393 0.017,-0.793 0.026,-1.189Z" style="fill:#f5c03e;"/></g><g><path d="M73.494,10.91c0.573,-0.994 1.518,-1.72 2.627,-2.018c1.108,-0.298 2.289,-0.144 3.284,0.429c12.97,7.475 55.825,32.17 68.398,39.415c1.931,1.113 2.594,3.58 1.481,5.511c-0.252,0.439 -0.511,0.887 -0.763,1.325c-1.113,1.931 -3.58,2.594 -5.51,1.482c-12.641,-7.285 -55.903,-32.215 -68.611,-39.538c-1.954,-1.126 -2.625,-3.622 -1.499,-5.576c0.196,-0.341 0.396,-0.687 0.593,-1.03Z" style="fill:#f5c03e;"/><path d="M34.402,109.222c0.277,-1.114 0.986,-2.072 1.969,-2.663c0.984,-0.591 2.162,-0.768 3.276,-0.491c14.527,3.617 62.522,15.568 76.603,19.074c2.162,0.539 3.479,2.728 2.941,4.891c-0.123,0.491 -0.248,0.993 -0.37,1.484c-0.538,2.162 -2.727,3.478 -4.889,2.94c-14.158,-3.525 -62.609,-15.589 -76.842,-19.133c-2.188,-0.545 -3.52,-2.76 -2.975,-4.948c0.095,-0.382 0.191,-0.77 0.287,-1.154Z" style="fill:#f5c03e;"/><path d="M35.171,207.907c-0.041,-1.147 0.375,-2.263 1.156,-3.104c0.782,-0.84 1.866,-1.336 3.013,-1.377c14.96,-0.541 64.389,-2.326 78.89,-2.85c2.227,-0.081 4.098,1.659 4.178,3.887c0.019,0.505 0.037,1.023 0.056,1.528c0.08,2.227 -1.66,4.097 -3.886,4.177c-14.58,0.527 -64.479,2.33 -79.137,2.86c-2.253,0.081 -4.146,-1.68 -4.227,-3.933c-0.014,-0.393 -0.029,-0.793 -0.043,-1.188Z" style="fill:#f5c03e;"/></g></g><path d="M293.451,473.455l-209.349,-41.139l-4.114,300.311l213.617,68.025l-0.154,-327.197Z" style="fill:#d1aa7f;"/><path d="M560.302,432.469l-268.597,41.239l1.595,327.083l267.692,-63.629l-0.69,-304.693Z" style="fill:#c09d73;"/><path d="M294.718,473.778l-210.471,-36.498l-1.496,110.015l145.872,41.266l66.095,-114.783Z" style="fill:#ac8059;"/><path d="M294.164,473.148l-211.163,-41.266l-83.001,84.673l224.281,61.836l69.883,-105.243Z" style="fill:#eed0ac;"/><path d="M562.358,447.611l-267.536,26.696l80.899,123.567l185.311,-47.539l1.326,-102.724Z" style="fill:#ac8059;"/><path d="M559.502,431.612l-265.489,41.617l78.851,108.647l294.585,-65.395l-107.947,-84.869Z" style="fill:#e7c296;"/></g></g></svg>