<svg id="_77dac496b3224fc" data-name="77dac496b3224fc" xmlns="http://www.w3.org/2000/svg" width="41.113" height="41.111" viewBox="0 0 41.113 41.111">
  <path id="Path_2520" data-name="Path 2520" d="M938.805,92.384h-6.092v-9.54c0-2.275-.041-5.2-3.168-5.2-3.173,0-3.658,2.479-3.658,5.038v9.7H919.8V72.766h5.848v2.681h.082a6.409,6.409,0,0,1,5.77-3.169c6.174,0,7.313,4.061,7.313,9.344Zm-25.883-22.3a3.535,3.535,0,1,1,3.534-3.535,3.535,3.535,0,0,1-3.534,3.535m3.046,22.3h-6.1V72.766h6.1Zm25.874-35.027H906.809a3,3,0,0,0-3.034,2.963V95.5a3,3,0,0,0,3.034,2.967h35.033a3.008,3.008,0,0,0,3.046-2.967V60.318a3.006,3.006,0,0,0-3.046-2.963" transform="translate(-903.775 -57.355)" fill="#fff"/>
</svg>
