<?xml version="1.0" encoding="UTF-8" standalone="no"?><!DOCTYPE svg PUBLIC "-//W3C//DTD SVG 1.1//EN" "http://www.w3.org/Graphics/SVG/1.1/DTD/svg11.dtd"><svg width="100%" height="100%" viewBox="0 0 2134 2134" version="1.1" xmlns="http://www.w3.org/2000/svg" xmlns:xlink="http://www.w3.org/1999/xlink" xml:space="preserve" xmlns:serif="http://www.serif.com/" style="fill-rule:evenodd;clip-rule:evenodd;stroke-linejoin:round;stroke-miterlimit:2;"><circle cx="1066.67" cy="1066.67" r="1066.67" style="fill:#fd8469;"/><g id="g1000"><g id="g916"><g id="g914"><path id="polygon912" d="M1667.81,1348.29l-0,-526.688l-407.949,268.79l407.949,257.898Z" style="fill:#fff;fill-rule:nonzero;"/></g></g><g id="g922"><g id="g920"><path id="polygon918" d="M457.726,1348.29l407.949,-257.898l-407.949,-268.79l-0,526.688Z" style="fill:#fff;fill-rule:nonzero;"/></g></g><g id="g928"><g id="g926"><path id="path924" d="M1592.18,668.225l-1058.82,0c-37.74,0 -67.689,28.135 -73.361,64.362l602.772,397.133l602.772,-397.133c-5.673,-36.227 -35.622,-64.362 -73.362,-64.362Z" style="fill:#fff;fill-rule:nonzero;"/></g></g><g id="g934"><g id="g932"><path id="path930" d="M1190.58,1136.07l-107.016,70.488c-6.353,4.159 -13.538,6.201 -20.798,6.201c-7.261,0 -14.446,-2.042 -20.799,-6.201l-107.016,-70.563l-474.806,300.327c5.823,35.924 35.622,63.832 73.21,63.832l1058.82,-0c37.589,-0 67.387,-27.908 73.21,-63.832l-474.806,-300.252Z" style="fill:#fff;fill-rule:nonzero;"/></g></g></g></svg>