<?xml version="1.0" encoding="UTF-8" standalone="no"?><!DOCTYPE svg PUBLIC "-//W3C//DTD SVG 1.1//EN" "http://www.w3.org/Graphics/SVG/1.1/DTD/svg11.dtd"><svg width="100%" height="100%" viewBox="0 0 3111 2826" version="1.1" xmlns="http://www.w3.org/2000/svg" xmlns:xlink="http://www.w3.org/1999/xlink" xml:space="preserve" xmlns:serif="http://www.serif.com/" style="fill-rule:evenodd;clip-rule:evenodd;stroke-linejoin:round;stroke-miterlimit:2;"><g><rect x="1166.42" y="1890.29" width="776.936" height="687.009" style="fill:#fff;"/><rect x="1166.42" y="1890.29" width="776.936" height="379.899" style="fill:#f2f3f0;"/><rect x="1166.42" y="1890.29" width="776.936" height="144.21" style="fill:#bebebe;"/><path d="M3145.6,0c0,-19.26 -15.613,-34.874 -34.873,-34.874l-3110.72,0c-19.26,0 -34.874,15.614 -34.874,34.874l0,1922.23c0,19.26 15.614,34.873 34.874,34.873l3110.72,0c19.26,0 34.873,-15.613 34.873,-34.873l0,-1922.23Z" style="fill:#454748;"/><rect x="70.998" y="70.526" width="2969.28" height="1754.79" style="fill:#d5f5fc;"/><path d="M2304.92,2600.33c0,-16.512 -6.559,-32.347 -18.234,-44.022c-11.675,-11.675 -27.51,-18.234 -44.022,-18.234c-243.873,-0 -1132.74,-0 -1376.31,-0c-34.287,-0 -62.083,27.795 -62.083,62.083c0,84.485 0,225.275 0,225.275l1500.65,-0l0,-225.102Z" style="fill:#fff;"/></g><g><path d="M1670.65,1033.24c0,-32.534 -26.413,-58.947 -58.947,-58.947l-117.894,-0c-32.534,-0 -58.947,26.413 -58.947,58.947l-0,151.052c-0,32.534 26.413,58.947 58.947,58.947l117.894,-0c32.534,-0 58.947,-26.413 58.947,-58.947l0,-151.052Z" style="fill:#fcb8ac;"/><path d="M1671.78,1024.16c0,-32.534 -27.545,-49.869 -60.079,-49.869l-117.894,-0c-32.534,-0 -57.518,20.251 -57.518,52.785c0,0 58.922,52.904 105.923,73.726c129.776,47.594 90.888,40.678 125.737,54.158c5.149,10.244 2.108,-118.271 3.831,-130.8Z" style="fill:#f0ada1;"/><ellipse cx="1557.2" cy="682.231" rx="265.014" ry="367.619" style="fill:#fcb8ac;"/><path id="v" d="M1840.48,398.541c-44.813,-114.661 -296.371,-120.967 -296.371,-120.967c-60.633,-5.7 -236.894,54.617 -251.905,127.35l0.305,269.72c50.93,-36.54 22.395,68.652 30.305,62.469c9.138,-7.145 24.217,-84.499 42.202,-100.777c37.531,-33.968 -12.845,-133.883 22.694,-155.697c14.153,-8.687 52.426,11.212 99.366,5.364c52.428,-6.532 133.272,-43.311 199.775,-45.138c17.537,-0.482 34.012,11.955 45.336,18.996c44.217,27.492 48.759,132.109 43.306,173.135c-3.591,27.021 9.391,101.461 24.181,101.179c6.043,-0.115 -9.231,-97.706 22.579,-85.156c17.918,7.069 26.974,36.899 28.127,-0.652c1.707,-55.643 3.991,-201.207 -9.9,-249.826Z" style="fill:#5f4514;"/><path d="M1305.55,645.598c31.787,-1.681 59.642,35.665 62.165,83.347c2.522,47.682 -8.874,95.485 -40.661,97.167c-31.787,1.682 -68.141,-43.004 -70.664,-90.686c-2.523,-47.682 17.373,-88.146 49.16,-89.828Z" style="fill:#fcb8ac;"/><path d="M1799.97,821.697c-31.283,-5.883 -49.515,-48.758 -40.69,-95.684c8.825,-46.926 31.204,-90.678 62.487,-84.795c31.283,5.884 56.037,57.9 47.212,104.826c-8.825,46.926 -37.726,81.536 -69.009,75.653Z" style="fill:#fcb8ac;"/><path d="M1808.14,318.403c0.362,-0.284 0.855,-0.334 1.266,-0.127c0.411,0.206 0.666,0.631 0.654,1.091c-0.235,9.101 -1.024,39.716 -1.024,39.716l-27.501,-19.787c-0,-0 20.126,-15.805 26.605,-20.893Z" style="fill:#5f4514;"/><path d="M1856.12,361.94c0.482,-0.017 0.927,0.26 1.124,0.701c0.198,0.44 0.109,0.956 -0.225,1.305c-6.607,6.909 -27.186,28.428 -27.186,28.428l-20.037,-28.81c0,0 35.745,-1.253 46.324,-1.624Z" style="fill:#5f4514;"/><path id="path50" d="M1693.95,614.6c-11.208,-0.467 -57.036,4.408 -59.488,6.831c-2.423,2.451 -11.208,8.787 -12.202,6.831c-0.962,-1.957 -2.422,-13.165 -2.422,-15.121c0,-1.927 7.297,-10.712 10.245,-11.704c2.92,-0.964 37.042,-4.875 43.872,-4.875c6.831,0 31.204,3.911 32.663,5.867c1.459,1.955 17.076,11.209 20.491,14.624c20.053,29.452 -23.555,-1.926 -33.159,-2.453Z" style="fill:#5f4514;fill-rule:nonzero;"/><path id="path501" serif:id="path50" d="M1437.82,615.926c11.209,-0.467 57.037,4.408 59.488,6.831c2.423,2.451 11.209,8.787 12.202,6.831c0.963,-1.956 2.422,-13.165 2.422,-15.121c0,-1.926 -7.296,-10.712 -10.245,-11.704c-2.919,-0.964 -37.042,-4.875 -43.871,-4.875c-6.831,0 -31.204,3.911 -32.664,5.867c-1.459,1.955 -17.075,11.209 -20.49,14.624c-20.054,29.452 23.555,-1.926 33.158,-2.453Z" style="fill:#5f4514;fill-rule:nonzero;"/><path d="M1089.66,1407.21l29.013,-136.499c-0,-63.278 252.788,-150.906 316.066,-150.906c3.308,0 3.22,34.057 16.284,49.628c78.525,93.593 220.174,29.929 220.291,-46.683c88.125,12.423 318.19,85.894 317.654,148.904l32.086,138.293c-87.428,85.278 -263.287,156.254 -465.583,156.054c-200.543,-0.199 -377.69,-71.761 -465.811,-158.791Z" style="fill:#f44b70;"/></g></svg>