<?xml version="1.0" encoding="UTF-8" standalone="no"?><!DOCTYPE svg PUBLIC "-//W3C//DTD SVG 1.1//EN" "http://www.w3.org/Graphics/SVG/1.1/DTD/svg11.dtd"><svg width="100%" height="100%" viewBox="0 0 1375 1455" version="1.1" xmlns="http://www.w3.org/2000/svg" xmlns:xlink="http://www.w3.org/1999/xlink" xml:space="preserve" xmlns:serif="http://www.serif.com/" style="fill-rule:evenodd;clip-rule:evenodd;stroke-linecap:round;stroke-linejoin:round;stroke-miterlimit:1.5;"><clipPath id="_clip1"><rect id="salesman-icon.svg" x="0" y="0" width="1375" height="1454.17"/></clipPath><g clip-path="url(#_clip1)"><g><g><path d="M554.583,16.046c41.425,-1.95 97.6,60.858 121.025,59.8c16.467,-0.746 67.938,-46.175 103.338,-65.804c34.646,-19.213 49.037,-9.625 43.837,18.304l-79.558,293.583c125.646,97.813 326.846,352.833 347.6,582.725c24.379,270.017 -196.75,486.638 -504.575,507.846c-13.567,0.933 -26.996,1.438 -40.325,1.529l0,-0.221c-13.058,-0.104 -26.221,-0.604 -39.512,-1.52c-307.83,-21.205 -528.955,-237.825 -504.58,-507.846c20.755,-229.892 221.959,-484.909 347.605,-582.725l-79.563,-293.579c-2.654,-17.609 12.913,-28.696 34.154,-16.6c31.571,17.975 73.784,72.445 99.804,70.37c1.788,-0.141 3.392,0.413 4.884,0.205c25.941,-3.571 115.566,-67.025 145.866,-66.067Z" style="fill:#e2dbcb;"/><path d="M798.358,377.783c123.284,116.971 281.288,338.734 299.55,541.038c24.38,270.017 -196.746,486.637 -504.575,507.846c-13.562,0.933 -26.996,1.437 -40.325,1.529l0,-0.217c-13.058,-0.104 -26.221,-0.608 -39.512,-1.525c-273.842,-18.862 -479.071,-192.379 -503.888,-420.583c86.184,22.129 210.296,7.425 367.446,-49.296c191.221,-69.021 309.5,-199.996 309.5,-414.121c0,-58.862 -12.471,-114.679 -34.783,-164.671l146.587,0Z" style="fill:#dad1bc;"/><path d="M1042.73,726.158c27.113,62.459 46.058,126.742 51.692,189.175c24.379,270.017 -196.746,486.638 -504.575,507.846c-13.563,0.933 -26.996,1.438 -40.325,1.529l-0,-0.216c-13.058,-0.105 -26.221,-0.609 -39.513,-1.525c-193.579,-13.334 -352.871,-103.95 -438.371,-236.513c103.284,77.638 237.1,124.513 383.209,124.513c326.717,-0 591.971,-234.392 591.971,-523.096c-0,-20.875 -1.388,-41.463 -4.088,-61.713Z" style="fill:#c7ba9d;"/><g><path d="M685.908,375.783c0.413,-5.15 -2.995,-9.629 -7.6,-9.991l-16.687,-1.329c-4.604,-0.367 -8.675,3.516 -9.084,8.666c13.13,98.679 -27.47,330.021 -30.149,343.275c-0.413,5.15 6.224,4.796 10.829,5.163l16.687,1.325c4.604,0.366 8.675,-3.517 9.083,-8.667c23.692,-115.079 32.355,-227.842 26.921,-338.442Z" style="fill:#ffa100;"/><path d="M687.45,449.654c2.808,-5.046 -16.671,-73.271 -22.204,-72.441c-2.184,-0.434 -6.471,1.62 -6.338,2.225c4.259,5.437 10.454,19.645 15.192,33.212c6.554,18.754 12.942,37.742 13.35,37.004Z" style="fill:#c68515;"/><path d="M695.408,362.333c-0.854,-3.996 -5.212,-6.458 -9.729,-5.496l-16.375,3.492c-4.517,0.963 -7.491,4.988 -6.641,8.983c36.504,70.934 53.42,256.446 54.045,267.167c0.855,3.996 7.15,1.946 11.667,0.979l16.375,-3.487c4.517,-0.963 7.492,-4.992 6.642,-8.988c-5.054,-93.221 -24.005,-180.65 -55.984,-262.65Z" style="fill:#ffa100;"/><path d="M701.704,378.908c-0.125,0.059 -0.733,-2.033 -0.946,-2.275l-47.412,0.025c-0.567,0 -0.254,0.288 -0.254,0.7c-0,0.013 0.296,2.771 0.283,2.292l46.921,-0.046c0.567,0 1.408,-0.283 1.408,-0.696Z" style="fill:#c68515;"/><path d="M782.696,338.596c-0,-0 -4.796,-17.479 -12.917,-17.479l-448.946,-0c-8.12,-0 -8.162,5.512 -11.716,12.175c-0,-0 -8.575,18.766 -0.454,18.766l471.041,-0.804c8.121,0 5.059,-5.629 2.992,-12.658Z" style="fill:#ffa100;"/><path d="M800.438,359.913c-0,-6.95 -5.646,-12.592 -12.596,-12.592l-481.542,-0c-6.95,-0 -12.596,5.642 -12.596,12.591l0,4.8c0,6.951 5.646,12.592 12.596,12.592l481.542,0c6.95,0 12.596,-5.641 12.596,-12.591l-0,-4.8Z" style="fill:#ffa100;"/><path d="M717.267,345.996c-15.892,0.292 -220.246,-0.496 -330.805,-0.321c-3.016,0.004 -7.204,4.146 -2.154,4.038c12.209,0.02 320.838,2.062 337.713,0.683c5.671,-0.463 -1.729,-4.454 -4.754,-4.4Z" style="fill:#c68515;"/></g><text x="448.321px" y="1026.77px" style="font-family:'PalatinoLinotype-Bold', 'Palatino Linotype', serif;font-weight:700;font-size:395.133px;fill:#353535;">$</text></g><g><rect x="80.092" y="1216.13" width="286.071" height="106.254" style="fill:#659718;"/><rect x="80.088" y="1215.3" width="286.175" height="24.283" style="fill:#54791b;"/><rect x="199.729" y="1215.53" width="49.138" height="106.846" style="fill:#fff;"/></g><g><rect x="79.408" y="1322.86" width="286.071" height="106.254" style="fill:#659718;"/><rect x="79.408" y="1322.03" width="286.175" height="24.283" style="fill:#54791b;"/><rect x="199.05" y="1322.26" width="49.137" height="106.846" style="fill:#fff;"/></g><g><rect x="79.408" y="1110.83" width="286.071" height="106.254" style="fill:#659718;"/><rect x="79.408" y="1110" width="286.175" height="24.283" style="fill:#54791b;"/><rect x="79.408" y="1110" width="286.175" height="24.283" style="fill:#54791b;"/><rect x="199.05" y="1110.23" width="49.137" height="106.846" style="fill:#fff;"/></g><g><path d="M599.233,1381.62l-169.125,-230.725l-85.696,62.816l169.121,230.725l85.7,-62.816Z" style="fill:#659718;"/><path d="M599.963,1381.21l-169.184,-230.808l-19.587,14.358l169.183,230.809l19.588,-14.359Z" style="fill:#54791b;"/><path d="M530.375,1286.66l-29.05,-39.633l-86.175,63.167l29.05,39.633l86.175,-63.167Z" style="fill:#fff;"/></g><g><rect x="596.925" y="1339.6" width="286.071" height="106.254" style="fill:#659718;"/><rect x="596.925" y="1338.77" width="286.175" height="24.283" style="fill:#54791b;"/><rect x="716.567" y="1339" width="49.138" height="106.846" style="fill:#fff;"/></g><g><path d="M889.9,1366.21l-73.212,-0.067c-0,-0 -0.03,34.417 -0.055,59.058c-0.012,13.5 10.921,24.45 24.417,24.463c7.896,0.008 16.642,0.016 24.525,0.025c13.392,0.012 24.258,-10.834 24.271,-24.225c0.021,-24.655 0.054,-59.255 0.054,-59.255Z" style="fill:#ff8d85;"/><path d="M1159.62,1366.21l-73.213,-0.067c0,-0 -0.033,34.417 -0.054,59.058c-0.012,13.5 10.921,24.45 24.417,24.463c7.896,0.008 16.641,0.016 24.525,0.025c13.391,0.012 24.254,-10.834 24.266,-24.225c0.025,-24.655 0.059,-59.255 0.059,-59.255Z" style="fill:#ff8d85;"/><ellipse cx="994.275" cy="1183.18" rx="299.95" ry="231.317" style="fill:#ffb7b0;"/><path d="M931.3,999.188c-2.175,0.416 -4.421,-0.159 -6.125,-1.567c-1.708,-1.413 -2.696,-3.508 -2.696,-5.725c-0.008,-0 -0.008,-0 -0.008,-0.004c-0,-5.204 3.862,-9.596 9.025,-10.263c43.396,-5.487 85.558,-6.05 126.025,-0.191c5.146,0.775 8.954,5.195 8.954,10.404l0.013,0.004c-0,2.204 -1,4.292 -2.721,5.675c-1.717,1.379 -3.967,1.912 -6.121,1.437c-38.092,-8.008 -80.167,-8.491 -126.346,0.23Z" style="fill:#ed786f;"/><path d="M900.121,1362.65l-73.213,-0.067c0,0 -0.033,37.096 -0.058,62.95c-0.012,13.496 10.921,24.45 24.417,24.463c7.896,0.008 16.641,0.016 24.525,0.021c13.391,0.012 24.258,-10.834 24.27,-24.221c0.021,-25.863 0.059,-63.146 0.059,-63.146Z" style="fill:#ffb7b0;"/><path d="M1170.32,1362l-73.2,1.246c-0,-0 0.633,37.379 1.075,63.241c0.108,6.4 2.758,12.496 7.362,16.946c4.6,4.45 10.784,6.888 17.183,6.779c8.325,-0.141 17.63,-0.3 25.875,-0.441c6.15,-0.104 12.009,-2.646 16.284,-7.071c4.275,-4.421 6.616,-10.363 6.512,-16.513c-0.441,-25.887 -1.091,-64.187 -1.091,-64.187Z" style="fill:#ffb7b0;"/><circle cx="772.817" cy="1127.76" r="19.192"/><path d="M714.454,942.554c-1.625,-2.279 0.292,-5.633 2.517,-7.446c2.225,-1.808 5.275,-2.179 7.8,-0.945c34.442,16.829 119.521,58.395 119.521,58.395l-97.025,78.909c8.521,-2.738 -9.467,-96.225 -32.813,-128.913Z" style="fill:#ffb7b0;"/><path d="M710.167,1144.11l10.571,115.592c-19.642,1.113 -64.046,-9.658 -85.992,-34.879c-5.979,-2.929 -9.496,-65.821 -5.142,-66.413c13.683,-1.858 20.817,7.813 80.563,-14.3Z" style="fill:#ffb7b0;"/><path d="M636.804,1158.52c-2.237,-0.492 -5.991,-0.392 -7.379,0.041c-3.35,1.088 -1.383,43.875 3.096,63.488c0.004,0.004 0.004,0.008 0.008,0.012c0.084,0.088 1.109,1.196 2.125,2.296c0.334,0.363 0.859,0.483 1.317,0.304c0.458,-0.179 0.762,-0.621 0.762,-1.116c0.017,-13.255 0.071,-65.025 0.071,-65.025Z" style="fill:#ff8d85;"/><path d="M1281.7,1161.12c52.8,-2.984 58.042,-21.175 53.954,-41.859c-1.254,-6.35 -12.316,-26.708 -21.55,-17.929c-11.021,10.479 4.929,22.721 13.754,35.867c8.513,12.671 21.942,2.492 27.921,-4.458c8.2,-9.525 8.963,-22.2 13.763,-27.667" style="fill:none;stroke:#ffb7b0;stroke-width:15.14px;"/></g></g></g></svg>