<svg xmlns="http://www.w3.org/2000/svg" width="1343.991" height="1703" viewBox="0 0 1343.991 1703">
  <g id="Group_35" data-name="Group 35" transform="translate(-2748.599 2585)">
    <g id="Path_31" data-name="Path 31" transform="translate(3184.976 -2585)" fill="none" opacity="0.8">
      <path d="M453.806,0c250.63,0,453.806,203.176,453.806,453.806S704.437,907.613,453.806,907.613,0,704.437,0,453.806,203.176,0,453.806,0Z" stroke="none"/>
      <path d="M 453.8064880371094 140 C 280.7730102539063 140 140 280.7730102539063 140 453.8064880371094 C 140 626.8399658203125 280.7730102539063 767.6129760742188 453.8064880371094 767.6129760742188 C 626.8399658203125 767.6129760742188 767.6129760742188 626.8399658203125 767.6129760742188 453.8064880371094 C 767.6129760742188 280.7730102539063 626.8399658203125 140 453.8064880371094 140 M 453.8064880371094 0 C 704.43701171875 0 907.6129760742188 203.1759643554688 907.6129760742188 453.8064880371094 C 907.6129760742188 704.43701171875 704.43701171875 907.6129760742188 453.8064880371094 907.6129760742188 C 203.1759643554688 907.6129760742188 0 704.43701171875 0 453.8064880371094 C 0 203.1759643554688 203.1759643554688 0 453.8064880371094 0 Z" stroke="none" fill="#3a86ff"/>
    </g>
    <g id="Group_33" data-name="Group 33" transform="translate(3765.007 -1479.034) rotate(180)">
      <rect id="Rectangle_4" data-name="Rectangle 4" width="368" height="32" rx="4" transform="translate(0.007 -0.034)" fill="#03d388"/>
      <rect id="Rectangle_5" data-name="Rectangle 5" width="368" height="31" rx="4" transform="translate(0.007 61.966)" fill="#03d388"/>
      <rect id="Rectangle_6" data-name="Rectangle 6" width="368" height="31" rx="4" transform="translate(0.007 124.966)" fill="#03d388"/>
      <rect id="Rectangle_7" data-name="Rectangle 7" width="368" height="32" rx="4" transform="translate(0.007 185.966)" fill="#03d388"/>
      <rect id="Rectangle_8" data-name="Rectangle 8" width="368" height="32" rx="4" transform="translate(0.007 247.966)" fill="#03d388"/>
    </g>
    <rect id="Rectangle_46" data-name="Rectangle 46" width="382" height="382" rx="24" transform="translate(3015 -1571)" fill="#fff"/>
    <rect id="Rectangle_47" data-name="Rectangle 47" width="161" height="382" rx="24" transform="translate(3604 -1264)" fill="#ff7330"/>
    <g id="Group_34" data-name="Group 34" transform="translate(3225.549 -1366.334) rotate(90)">
      <rect id="Rectangle_4-2" data-name="Rectangle 4" width="278" height="32" rx="4" transform="translate(0.334 -0.451)" fill="#e86ed0"/>
      <rect id="Rectangle_5-2" data-name="Rectangle 5" width="278" height="32" rx="4" transform="translate(0.334 64.549)" fill="#e86ed0"/>
      <rect id="Rectangle_6-2" data-name="Rectangle 6" width="278" height="31" rx="4" transform="translate(0.334 132.549)" fill="#e86ed0"/>
      <rect id="Rectangle_7-2" data-name="Rectangle 7" width="278" height="31" rx="4" transform="translate(0.334 201.549)" fill="#e86ed0"/>
    </g>
    <g id="Ellipse_10" data-name="Ellipse 10" transform="translate(2769 -1759)" fill="none" stroke="#e86ed0" stroke-width="40">
      <ellipse cx="187" cy="187.5" rx="187" ry="187.5" stroke="none"/>
      <ellipse cx="187" cy="187.5" rx="167" ry="167.5" fill="none"/>
    </g>
    <path id="Path_32" data-name="Path 32" d="M436.378-17.258V395.225H0Z" transform="translate(2748.599 -2153.756)" fill="#fff"/>
    <path id="Polygon_10" data-name="Polygon 10" d="M129.357,17.989a12,12,0,0,1,20.782,0L269.1,223.928a12,12,0,0,1-10.391,18H20.79a12,12,0,0,1-10.391-18Z" transform="translate(3330.755 -1186.677) rotate(-40)" fill="#03d388"/>
  </g>
</svg>
