<svg id="en1z6dh3i8s1" xmlns="http://www.w3.org/2000/svg" xmlns:xlink="http://www.w3.org/1999/xlink" viewBox="0 0 1380 1380" shape-rendering="geometricPrecision" text-rendering="geometricPrecision"><style><![CDATA[#en1z6dh3i8s5_tr {animation: en1z6dh3i8s5_tr__tr 5000ms linear infinite normal forwards}@keyframes en1z6dh3i8s5_tr__tr { 0% {transform: translate(663.412567px,655.338791px) rotate(0deg)} 20% {transform: translate(663.412567px,655.338791px) rotate(0deg);animation-timing-function: cubic-bezier(0,0,0.580000,1)} 30% {transform: translate(663.412567px,655.338791px) rotate(-6deg);animation-timing-function: cubic-bezier(0.420000,0,1,1)} 40% {transform: translate(663.412567px,655.338791px) rotate(0deg)} 100% {transform: translate(663.412567px,655.338791px) rotate(0deg)} }#en1z6dh3i8s12_tr {animation: en1z6dh3i8s12_tr__tr 5000ms linear infinite normal forwards}@keyframes en1z6dh3i8s12_tr__tr { 0% {transform: translate(700.834320px,684.956116px) rotate(0deg)} 20% {transform: translate(700.834320px,684.956116px) rotate(0deg);animation-timing-function: cubic-bezier(0,0,0.580000,1)} 30% {transform: translate(700.834320px,684.956116px) rotate(6deg);animation-timing-function: cubic-bezier(0.420000,0,1,1)} 40% {transform: translate(700.834320px,684.956116px) rotate(0deg)} 100% {transform: translate(700.834320px,684.956116px) rotate(0deg)} }]]></style><defs><linearGradient id="en1z6dh3i8s4-fill" x1="-675.062000" y1="336.354000" x2="535.278000" y2="-163.403000" spreadMethod="pad" gradientUnits="userSpaceOnUse"><stop id="en1z6dh3i8s4-fill-0" offset="0%" stop-color="rgb(114,199,178)"/><stop id="en1z6dh3i8s4-fill-1" offset="100%" stop-color="rgb(43,248,181)"/></linearGradient></defs><g id="en1z6dh3i8s2" clip-rule="evenodd"><g id="en1z6dh3i8s3" clip-rule="evenodd"><circle id="en1z6dh3i8s4" r="689.536000" transform="matrix(1 0 0 1 689.53599999999994 689.53599999999994)" clip-rule="evenodd" fill="url(#en1z6dh3i8s4-fill)" fill-rule="evenodd" stroke="none" stroke-width="1" stroke-linejoin="round" stroke-miterlimit="2"/><g id="en1z6dh3i8s5_tr" transform="translate(663.412567,655.338791) rotate(0)"><g id="en1z6dh3i8s5" transform="translate(-666.069458,-655.338791)" clip-rule="evenodd"><path id="en1z6dh3i8s6" d="M552.663000,421.890000C531.167000,395.894000,492.658000,392.243000,466.662000,413.738000C466.653000,413.738000,466.653000,413.747000,466.653000,413.747000C454.047000,424.168000,446.089000,439.171000,444.549000,455.457000C443,471.742000,447.989000,487.972000,458.418000,500.578000C499.085000,549.775000,562.253000,626.185000,602.930000,675.382000C613.350000,687.988000,628.354000,695.937000,644.639000,697.477000C660.924000,699.026000,677.154000,694.037000,689.760000,683.617000C689.760000,683.608000,689.769000,683.608000,689.769000,683.608000C715.774000,662.112000,719.426000,623.603000,697.930000,597.607000C657.143000,548.272000,593.441000,471.225000,552.663000,421.890000Z" clip-rule="evenodd" fill="rgb(255,130,130)" fill-rule="evenodd" stroke="none" stroke-width="1" stroke-linejoin="round" stroke-miterlimit="2"/><path id="en1z6dh3i8s7" d="M702.394000,669.065000L680.824000,686.891000L800.078000,831.135000L821.647000,813.309000L702.394000,669.065000Z" clip-rule="evenodd" fill="rgb(137,137,137)" fill-rule="evenodd" stroke="none" stroke-width="1" stroke-linejoin="round" stroke-miterlimit="2"/><path id="en1z6dh3i8s8" d="M865.219000,844.017000L822.099000,879.668000L799.359000,830.212000L820.919000,812.387000L865.219000,844.017000Z" clip-rule="evenodd" fill="rgb(137,137,137)" fill-rule="evenodd" stroke="none" stroke-width="1" stroke-linejoin="round" stroke-miterlimit="2"/><path id="en1z6dh3i8s9" d="M821.970000,879.428000L864.998000,843.667000L887.867000,893.067000L866.353000,910.947000L821.970000,879.428000Z" clip-rule="evenodd" fill="rgb(137,137,137)" fill-rule="evenodd" stroke="none" stroke-width="1" stroke-linejoin="round" stroke-miterlimit="2"/><path id="en1z6dh3i8s10" d="M472.942000,442.011000C471.245000,439.964000,468.212000,439.678000,466.164000,441.375000L458.732000,447.508000C456.685000,449.204000,456.399000,452.247000,458.095000,454.295000L645.939000,681.505000C647.636000,683.552000,650.670000,683.847000,652.726000,682.151000L660.150000,676.009000C662.197000,674.312000,662.483000,671.278000,660.795000,669.231000L472.942000,442.011000Z" clip-rule="evenodd" fill="rgb(241,88,88)" fill-rule="evenodd" stroke="none" stroke-width="1" stroke-linejoin="round" stroke-miterlimit="2"/><path id="en1z6dh3i8s11" d="M513.591000,413.526000C511.903000,411.479000,508.860000,411.193000,506.813000,412.880000L499.390000,419.022000C497.343000,420.719000,497.047000,423.753000,498.744000,425.809000L686.597000,653.020000C688.285000,655.067000,691.328000,655.353000,693.375000,653.665000L700.798000,647.524000C702.845000,645.827000,703.141000,642.793000,701.444000,640.737000L513.591000,413.526000Z" clip-rule="evenodd" fill="rgb(241,88,88)" fill-rule="evenodd" stroke="none" stroke-width="1" stroke-linejoin="round" stroke-miterlimit="2"/></g></g><g id="en1z6dh3i8s12_tr" transform="translate(700.834320,684.956116) rotate(0)"><g id="en1z6dh3i8s12" transform="translate(-700.834320,-684.956116)" clip-rule="evenodd"><path id="en1z6dh3i8s13" d="M444.743000,860.229000C435.632000,822.365000,446.439000,780.259000,476.806000,750.418000C522.278000,705.730000,594.492000,705.380000,637.981000,749.625000C681.461000,793.870000,679.847000,866.075000,634.375000,910.763000C604.027000,940.586000,561.764000,950.665000,524.085000,940.917000L596.152000,870.096000C607.125000,859.306000,613.368000,844.598000,613.507000,829.207000C613.636000,813.826000,607.651000,799.007000,596.862000,788.033000C596.041000,787.194000,595.220000,786.355000,594.390000,785.515000C584.800000,775.750000,571.724000,770.198000,558.039000,770.088000C544.354000,769.968000,531.176000,775.289000,521.420000,784.879000L444.743000,860.229000Z" clip-rule="evenodd" fill="rgb(255,247,247)" fill-rule="evenodd" stroke="none" stroke-width="1" stroke-linejoin="round" stroke-miterlimit="2"/><path id="en1z6dh3i8s14" d="M956.965000,509.845000C966.020000,547.718000,955.148000,589.806000,924.744000,619.601000C879.208000,664.224000,806.985000,664.473000,763.570000,620.163000C720.145000,575.854000,721.870000,503.649000,767.406000,459.035000C797.800000,429.249000,840.072000,419.234000,877.742000,429.037000L805.574000,499.748000C794.573000,510.528000,788.311000,525.218000,788.154000,540.609000C787.998000,555.999000,793.964000,570.819000,804.735000,581.820000C805.555000,582.659000,806.385000,583.498000,807.206000,584.337000C816.787000,594.112000,829.854000,599.682000,843.539000,599.820000C857.224000,599.959000,870.402000,594.656000,880.186000,585.075000L956.965000,509.845000Z" clip-rule="evenodd" fill="rgb(255,247,247)" fill-rule="evenodd" stroke="none" stroke-width="1" stroke-linejoin="round" stroke-miterlimit="2"/><path id="en1z6dh3i8s15" d="M804.218000,638.901000L751.185000,584.946000L589.309000,744.027000L642.343000,797.992000L804.218000,638.901000Z" clip-rule="evenodd" fill="rgb(255,247,247)" fill-rule="evenodd" stroke="none" stroke-width="1" stroke-linejoin="round" stroke-miterlimit="2"/></g></g></g></g></svg>