<svg xmlns="http://www.w3.org/2000/svg" width="202.844" height="195.477" viewBox="0 0 202.844 195.477">
  <g id="Polygon_4" data-name="Polygon 4" transform="matrix(0.819, -0.574, 0.574, 0.819, 0, 90.625)" fill="none">
    <path d="M58.577,33.091a24,24,0,0,1,40.847,0l35.984,58.3A24,24,0,0,1,114.984,128H43.016A24,24,0,0,1,22.592,91.395Z" stroke="none"/>
    <path d="M 78.99999237060547 41.69602966308594 C 77.98188781738281 41.69602966308594 76.56488800048828 42.02549743652344 75.59609985351563 43.59517669677734 L 39.61163330078125 101.899169921875 C 38.79309844970703 103.2253875732422 38.7630615234375 104.5879211425781 39.52242279052734 105.9489288330078 C 40.28177642822266 107.3099212646484 41.45703125 108 43.01552581787109 108 L 114.9844970703125 108 C 116.5429916381836 108 117.7182083129883 107.3099212646484 118.4775619506836 105.9489288330078 C 119.2369232177734 104.5879592895508 119.2068862915039 103.2253875732422 118.3883514404297 101.8991394042969 L 82.40392303466797 43.59520721435547 C 81.43509674072266 42.02552795410156 80.01809692382813 41.69602966308594 78.99999237060547 41.69602966308594 M 78.99999237060547 21.69602966308594 C 86.86739349365234 21.69602966308594 94.73479461669922 25.49435424804688 99.42335510253906 33.09099578857422 L 135.4078063964844 91.39495849609375 C 145.2763824462891 107.3845367431641 133.7742462158203 128 114.9844970703125 128 L 43.01552581787109 128 C 24.22578430175781 128 12.72360229492188 107.3845367431641 22.59217834472656 91.39495849609375 L 58.57663726806641 33.09099578857422 C 63.26519012451172 25.49435424804688 71.13259124755859 21.69602966308594 78.99999237060547 21.69602966308594 Z" stroke="none" fill="#03d388"/>
  </g>
</svg>
